<?xml version="1.0" encoding="UTF-8"?>
<svg version="1.1" xmlns="http://www.w3.org/2000/svg" width="344" height="333">
<path d="M0 0 C113.52 0 227.04 0 344 0 C344 109.89 344 219.78 344 333 C230.48 333 116.96 333 0 333 C0 223.11 0 113.22 0 0 Z " fill="#A66BE2" transform="translate(0,0)"/>
<path d="M0 0 C1.81564453 -0.07347656 1.81564453 -0.07347656 3.66796875 -0.1484375 C6.8125 0.375 6.8125 0.375 8.6640625 2.69140625 C9.88602761 5.54681452 10.9137554 8.4022294 11.8125 11.375 C12.4725 11.375 13.1325 11.375 13.8125 11.375 C15.109375 12.80078125 15.109375 12.80078125 16.5625 14.6875 C20.54511256 19.48407717 24.72234566 21.3621494 30.8125 22.375 C32.43211498 22.45149781 34.05439445 22.48311681 35.67578125 22.47265625 C36.56201172 22.46943359 37.44824219 22.46621094 38.36132812 22.46289062 C39.27333984 22.45451172 40.18535156 22.44613281 41.125 22.4375 C42.05634766 22.43298828 42.98769531 22.42847656 43.94726562 22.42382812 C46.23574373 22.41209234 48.52408808 22.39567363 50.8125 22.375 C50.8125 21.715 50.8125 21.055 50.8125 20.375 C51.40417969 20.09527344 51.99585938 19.81554687 52.60546875 19.52734375 C58.18177953 16.69825296 61.91640599 13.99391744 64.8125 8.375 C65.163125 7.281875 65.51375 6.18875 65.875 5.0625 C66.8125 2.375 66.8125 2.375 68.44921875 1.23046875 C73.99292932 -0.77626284 81.5260741 -0.77129632 87.0859375 1.16796875 C88.33291247 1.85459421 89.5649355 2.56901269 90.78125 3.30859375 C93.28627543 4.6237321 95.67581385 5.14315581 98.4375 5.75 C105.6434844 7.40728485 112.09536199 10.36444751 118.8125 13.375 C119.71097656 13.66246094 120.60945312 13.94992188 121.53515625 14.24609375 C124.52534137 15.7283639 125.19308419 17.49556875 126.8125 20.375 C128.40502224 21.95157043 130.05488377 23.471798 131.75 24.9375 C138.38898817 30.71532228 138.38898817 30.71532228 140.8125 33.375 C140.8125 34.035 140.8125 34.695 140.8125 35.375 C141.616875 35.7153125 141.616875 35.7153125 142.4375 36.0625 C148.07308017 39.17689957 151.68584455 43.22226738 155.35546875 48.40234375 C156.69508282 50.21603035 158.12336562 51.75799348 159.6875 53.375 C162.63610163 57.53773171 162.6100483 59.35044571 161.8125 64.375 C160.18865746 66.08341768 158.51504771 67.74500404 156.8125 69.375 C155.23556517 71.36843423 153.6938519 73.39020729 152.1875 75.4375 C151.43210937 76.45972656 150.67671875 77.48195313 149.8984375 78.53515625 C148.86589844 79.94087891 148.86589844 79.94087891 147.8125 81.375 C147.25175781 82.11105469 146.69101562 82.84710938 146.11328125 83.60546875 C144.75993228 85.44651105 143.77320421 87.30579093 142.8125 89.375 C142.1525 89.375 141.4925 89.375 140.8125 89.375 C140.4825 90.365 140.1525 91.355 139.8125 92.375 C138.31640625 94.234375 138.31640625 94.234375 136.375 96.125 C135.75753906 96.75921875 135.14007813 97.3934375 134.50390625 98.046875 C131.37250594 99.59212334 130.0523404 99.36922661 126.64428711 98.95800781 C125.74044785 98.85321106 124.83660858 98.74841431 123.90538025 98.64044189 C123.21472977 98.55284607 122.52407928 98.46525024 121.8125 98.375 C121.82249275 100.04630478 121.82249275 100.04630478 121.83268738 101.75137329 C121.8935288 112.25680054 121.93848726 122.76219199 121.96793652 133.26775551 C121.98358569 138.66865004 122.00481052 144.06940223 122.03881836 149.47021484 C122.07143817 154.68327609 122.08935864 159.89620049 122.09713173 165.10935593 C122.1026705 167.09725473 122.11348638 169.08514613 122.12969017 171.0729866 C122.15149914 173.85953142 122.15446546 176.64551233 122.15307617 179.43212891 C122.163862 180.25212372 122.17464783 181.07211853 122.1857605 181.91696167 C122.15932404 186.8242649 121.42240905 190.06654537 118.8125 194.375 C118.1525 194.375 117.4925 194.375 116.8125 194.375 C116.750625 195.138125 116.68875 195.90125 116.625 196.6875 C115.8125 199.375 115.8125 199.375 113.5 201 C112.613125 201.45375 111.72625 201.9075 110.8125 202.375 C110.21421324 202.89050226 109.61592648 203.40600452 108.99950981 203.93712807 C106.20451252 205.77472758 104.46294802 205.75220746 101.13284302 205.75595093 C99.97486206 205.7644104 98.8168811 205.77286987 97.62380981 205.78158569 C96.35721527 205.775513 95.09062073 205.76944031 93.78564453 205.76318359 C92.43519669 205.76724976 91.08475218 205.7725919 89.73431396 205.77911377 C86.06889264 205.79279057 82.40372465 205.78748665 78.73829889 205.77797651 C74.90005977 205.77037864 71.06184227 205.77742617 67.22360229 205.78213501 C60.77581899 205.78759352 54.32813875 205.78039988 47.88037109 205.76611328 C40.43221865 205.74980036 32.98431274 205.75506491 25.53616631 205.7715925 C19.13772193 205.78522123 12.73935165 205.78711985 6.34089744 205.77927649 C2.52110944 205.77460579 -1.29856284 205.77395816 -5.11834335 205.78388596 C-8.71188853 205.79257309 -12.30511713 205.78650215 -15.89862823 205.76920319 C-17.84166533 205.76336446 -19.78472929 205.77223999 -21.72775269 205.78158569 C-28.57493188 205.73180699 -33.67166729 205.53848346 -38.98046875 200.76171875 C-39.44066406 200.20097656 -39.90085938 199.64023437 -40.375 199.0625 C-40.84292969 198.50949219 -41.31085938 197.95648438 -41.79296875 197.38671875 C-45.7877001 191.62401106 -46.617814 187.25446625 -46.52807617 180.43212891 C-46.52851425 179.5534314 -46.52895233 178.67473389 -46.52940369 177.76940918 C-46.52732225 174.87989688 -46.50402164 171.9909728 -46.48046875 169.1015625 C-46.4748705 167.0923189 -46.47060149 165.08307119 -46.46760559 163.07382202 C-46.45617485 157.79657602 -46.4267228 152.51957941 -46.39349365 147.24243164 C-46.36275464 141.85306166 -46.34909206 136.46365121 -46.33398438 131.07421875 C-46.30185149 120.50770319 -46.25067647 109.94137237 -46.1875 99.375 C-46.80020752 99.46966553 -47.41291504 99.56433105 -48.04418945 99.66186523 C-48.85073975 99.77216064 -49.65729004 99.88245605 -50.48828125 99.99609375 C-51.28661377 100.11138428 -52.08494629 100.2266748 -52.9074707 100.34545898 C-55.1875 100.375 -55.1875 100.375 -58.375 98.4375 C-61.69433131 95.12746654 -64.71068113 91.35371967 -67.1875 87.375 C-67.1875 86.715 -67.1875 86.055 -67.1875 85.375 C-68.6725 84.88 -68.6725 84.88 -70.1875 84.375 C-70.496875 83.570625 -70.80625 82.76625 -71.125 81.9375 C-71.90701521 79.24896814 -71.90701521 79.24896814 -74.1015625 78.44921875 C-76.59555833 77.1648576 -77.26810398 76.04769324 -78.625 73.625 C-80.21523412 70.8791299 -81.7909026 68.64650128 -84 66.375 C-86.10456538 63.48873891 -86.59259778 62.67386246 -86.8125 59.3125 C-86.04784595 54.4951795 -84.67626816 53.65336559 -81.1875 50.375 C-78.57089294 47.4680947 -75.98013951 44.53995968 -73.39453125 41.60546875 C-72.66621094 40.86941406 -71.93789062 40.13335937 -71.1875 39.375 C-70.5275 39.375 -69.8675 39.375 -69.1875 39.375 C-69.1875 38.715 -69.1875 38.055 -69.1875 37.375 C-67.3125 35.25 -67.3125 35.25 -65.1875 33.375 C-64.5275 33.375 -63.8675 33.375 -63.1875 33.375 C-62.919375 32.735625 -62.65125 32.09625 -62.375 31.4375 C-61.1875 29.375 -61.1875 29.375 -58.1875 28.375 C-57.8575 27.715 -57.5275 27.055 -57.1875 26.375 C-56.1875 24.375 -56.1875 24.375 -53.1875 23.375 C-52.49517087 22.05480964 -51.83170792 20.71932823 -51.1875 19.375 C-46.22737578 13.84392623 -41.24356437 11.27333204 -34.1875 9.375 C-32.55978962 8.82039187 -30.93469814 8.25802998 -29.3125 7.6875 C-26.65039738 6.75719532 -25.05853426 6.375 -22.1875 6.375 C-22.1875 5.715 -22.1875 5.055 -22.1875 4.375 C-20.81458132 3.88990207 -19.43903297 3.41224487 -18.0625 2.9375 C-16.91394531 2.53724609 -16.91394531 2.53724609 -15.7421875 2.12890625 C-10.54565735 0.59537365 -5.40222937 0.15054444 0 0 Z " fill="#A76CE1" transform="translate(135.1875,72.625)"/>
<path d="M0 0 C1.81564453 -0.07347656 1.81564453 -0.07347656 3.66796875 -0.1484375 C6.8125 0.375 6.8125 0.375 8.6640625 2.69140625 C9.88602761 5.54681452 10.9137554 8.4022294 11.8125 11.375 C12.4725 11.375 13.1325 11.375 13.8125 11.375 C15.109375 12.80078125 15.109375 12.80078125 16.5625 14.6875 C20.54511256 19.48407717 24.72234566 21.3621494 30.8125 22.375 C32.43211498 22.45149781 34.05439445 22.48311681 35.67578125 22.47265625 C36.56201172 22.46943359 37.44824219 22.46621094 38.36132812 22.46289062 C39.27333984 22.45451172 40.18535156 22.44613281 41.125 22.4375 C42.05634766 22.43298828 42.98769531 22.42847656 43.94726562 22.42382812 C46.23574373 22.41209234 48.52408808 22.39567363 50.8125 22.375 C50.8125 21.715 50.8125 21.055 50.8125 20.375 C51.40417969 20.09527344 51.99585938 19.81554687 52.60546875 19.52734375 C58.18177953 16.69825296 61.91640599 13.99391744 64.8125 8.375 C65.163125 7.281875 65.51375 6.18875 65.875 5.0625 C66.8125 2.375 66.8125 2.375 68.44921875 1.23046875 C73.99292932 -0.77626284 81.5260741 -0.77129632 87.0859375 1.16796875 C88.33291247 1.85459421 89.5649355 2.56901269 90.78125 3.30859375 C93.28627543 4.6237321 95.67581385 5.14315581 98.4375 5.75 C105.6434844 7.40728485 112.09536199 10.36444751 118.8125 13.375 C119.71097656 13.66246094 120.60945312 13.94992188 121.53515625 14.24609375 C124.52534137 15.7283639 125.19308419 17.49556875 126.8125 20.375 C128.40502224 21.95157043 130.05488377 23.471798 131.75 24.9375 C138.38898817 30.71532228 138.38898817 30.71532228 140.8125 33.375 C140.8125 34.035 140.8125 34.695 140.8125 35.375 C141.616875 35.7153125 141.616875 35.7153125 142.4375 36.0625 C148.07308017 39.17689957 151.68584455 43.22226738 155.35546875 48.40234375 C156.69508282 50.21603035 158.12336562 51.75799348 159.6875 53.375 C162.63610163 57.53773171 162.6100483 59.35044571 161.8125 64.375 C160.18865746 66.08341768 158.51504771 67.74500404 156.8125 69.375 C155.23556517 71.36843423 153.6938519 73.39020729 152.1875 75.4375 C151.43210937 76.45972656 150.67671875 77.48195313 149.8984375 78.53515625 C148.86589844 79.94087891 148.86589844 79.94087891 147.8125 81.375 C147.25175781 82.11105469 146.69101562 82.84710938 146.11328125 83.60546875 C144.75993228 85.44651105 143.77320421 87.30579093 142.8125 89.375 C142.1525 89.375 141.4925 89.375 140.8125 89.375 C140.4825 90.365 140.1525 91.355 139.8125 92.375 C138.31640625 94.234375 138.31640625 94.234375 136.375 96.125 C135.75753906 96.75921875 135.14007813 97.3934375 134.50390625 98.046875 C131.37250594 99.59212334 130.0523404 99.36922661 126.64428711 98.95800781 C125.74044785 98.85321106 124.83660858 98.74841431 123.90538025 98.64044189 C123.21472977 98.55284607 122.52407928 98.46525024 121.8125 98.375 C121.82249275 100.04630478 121.82249275 100.04630478 121.83268738 101.75137329 C121.8935288 112.25680054 121.93848726 122.76219199 121.96793652 133.26775551 C121.98358569 138.66865004 122.00481052 144.06940223 122.03881836 149.47021484 C122.07143817 154.68327609 122.08935864 159.89620049 122.09713173 165.10935593 C122.1026705 167.09725473 122.11348638 169.08514613 122.12969017 171.0729866 C122.15149914 173.85953142 122.15446546 176.64551233 122.15307617 179.43212891 C122.163862 180.25212372 122.17464783 181.07211853 122.1857605 181.91696167 C122.15932404 186.8242649 121.42240905 190.06654537 118.8125 194.375 C118.1525 194.375 117.4925 194.375 116.8125 194.375 C116.750625 195.138125 116.68875 195.90125 116.625 196.6875 C115.8125 199.375 115.8125 199.375 113.5 201 C112.613125 201.45375 111.72625 201.9075 110.8125 202.375 C110.21421324 202.89050226 109.61592648 203.40600452 108.99950981 203.93712807 C106.20451252 205.77472758 104.46294802 205.75220746 101.13284302 205.75595093 C99.97486206 205.7644104 98.8168811 205.77286987 97.62380981 205.78158569 C96.35721527 205.775513 95.09062073 205.76944031 93.78564453 205.76318359 C92.43519669 205.76724976 91.08475218 205.7725919 89.73431396 205.77911377 C86.06889264 205.79279057 82.40372465 205.78748665 78.73829889 205.77797651 C74.90005977 205.77037864 71.06184227 205.77742617 67.22360229 205.78213501 C60.77581899 205.78759352 54.32813875 205.78039988 47.88037109 205.76611328 C40.43221865 205.74980036 32.98431274 205.75506491 25.53616631 205.7715925 C19.13772193 205.78522123 12.73935165 205.78711985 6.34089744 205.77927649 C2.52110944 205.77460579 -1.29856284 205.77395816 -5.11834335 205.78388596 C-8.71188853 205.79257309 -12.30511713 205.78650215 -15.89862823 205.76920319 C-17.84166533 205.76336446 -19.78472929 205.77223999 -21.72775269 205.78158569 C-28.57493188 205.73180699 -33.67166729 205.53848346 -38.98046875 200.76171875 C-39.44066406 200.20097656 -39.90085938 199.64023437 -40.375 199.0625 C-40.84292969 198.50949219 -41.31085938 197.95648438 -41.79296875 197.38671875 C-45.7877001 191.62401106 -46.617814 187.25446625 -46.52807617 180.43212891 C-46.52851425 179.5534314 -46.52895233 178.67473389 -46.52940369 177.76940918 C-46.52732225 174.87989688 -46.50402164 171.9909728 -46.48046875 169.1015625 C-46.4748705 167.0923189 -46.47060149 165.08307119 -46.46760559 163.07382202 C-46.45617485 157.79657602 -46.4267228 152.51957941 -46.39349365 147.24243164 C-46.36275464 141.85306166 -46.34909206 136.46365121 -46.33398438 131.07421875 C-46.30185149 120.50770319 -46.25067647 109.94137237 -46.1875 99.375 C-46.80020752 99.46966553 -47.41291504 99.56433105 -48.04418945 99.66186523 C-48.85073975 99.77216064 -49.65729004 99.88245605 -50.48828125 99.99609375 C-51.28661377 100.11138428 -52.08494629 100.2266748 -52.9074707 100.34545898 C-55.1875 100.375 -55.1875 100.375 -58.375 98.4375 C-61.69433131 95.12746654 -64.71068113 91.35371967 -67.1875 87.375 C-67.1875 86.715 -67.1875 86.055 -67.1875 85.375 C-68.6725 84.88 -68.6725 84.88 -70.1875 84.375 C-70.496875 83.570625 -70.80625 82.76625 -71.125 81.9375 C-71.90701521 79.24896814 -71.90701521 79.24896814 -74.1015625 78.44921875 C-76.59555833 77.1648576 -77.26810398 76.04769324 -78.625 73.625 C-80.21523412 70.8791299 -81.7909026 68.64650128 -84 66.375 C-86.10456538 63.48873891 -86.59259778 62.67386246 -86.8125 59.3125 C-86.04784595 54.4951795 -84.67626816 53.65336559 -81.1875 50.375 C-78.57089294 47.4680947 -75.98013951 44.53995968 -73.39453125 41.60546875 C-72.66621094 40.86941406 -71.93789062 40.13335937 -71.1875 39.375 C-70.5275 39.375 -69.8675 39.375 -69.1875 39.375 C-69.1875 38.715 -69.1875 38.055 -69.1875 37.375 C-67.3125 35.25 -67.3125 35.25 -65.1875 33.375 C-64.5275 33.375 -63.8675 33.375 -63.1875 33.375 C-62.919375 32.735625 -62.65125 32.09625 -62.375 31.4375 C-61.1875 29.375 -61.1875 29.375 -58.1875 28.375 C-57.8575 27.715 -57.5275 27.055 -57.1875 26.375 C-56.1875 24.375 -56.1875 24.375 -53.1875 23.375 C-52.49517087 22.05480964 -51.83170792 20.71932823 -51.1875 19.375 C-46.22737578 13.84392623 -41.24356437 11.27333204 -34.1875 9.375 C-32.55978962 8.82039187 -30.93469814 8.25802998 -29.3125 7.6875 C-26.65039738 6.75719532 -25.05853426 6.375 -22.1875 6.375 C-22.1875 5.715 -22.1875 5.055 -22.1875 4.375 C-20.81458132 3.88990207 -19.43903297 3.41224487 -18.0625 2.9375 C-16.91394531 2.53724609 -16.91394531 2.53724609 -15.7421875 2.12890625 C-10.54565735 0.59537365 -5.40222937 0.15054444 0 0 Z M78 19.1875 C76.57395407 21.39958697 76.57395407 21.39958697 76.8125 24.375 C76.008125 24.7153125 76.008125 24.7153125 75.1875 25.0625 C72.58084982 26.39932422 72.58084982 26.39932422 69.8125 28.9375 C67.22134763 31.0428113 66.027417 32.00404804 62.8125 32.375 C62.8125 33.035 62.8125 33.695 62.8125 34.375 C61.29185206 34.83394807 59.77097052 35.29212214 58.25 35.75 C57.40308594 36.00523438 56.55617188 36.26046875 55.68359375 36.5234375 C54.73613281 36.80445312 53.78867188 37.08546875 52.8125 37.375 C51.70261719 37.73464844 50.59273438 38.09429687 49.44921875 38.46484375 C45.55406648 39.43967778 42.1962953 39.60740504 38.1875 39.5625 C36.91648437 39.55605469 35.64546875 39.54960938 34.3359375 39.54296875 C31.34811438 39.40053372 28.72248868 38.99540368 25.8125 38.375 C24.37621543 38.31233488 22.9374445 38.28813653 21.5 38.3125 C20.283125 38.333125 19.06625 38.35375 17.8125 38.375 C17.8125 37.715 17.8125 37.055 17.8125 36.375 C13.5487719 34.01589647 13.5487719 34.01589647 8.8125 33.375 C8.8125 32.715 8.8125 32.055 8.8125 31.375 C7.68259365 30.21085407 6.54109829 29.05626992 5.3515625 27.953125 C3.8125 26.375 3.8125 26.375 2.2734375 24.234375 C1.72945313 23.49703125 1.18546875 22.7596875 0.625 22 C-0.10783203 20.93652344 -0.10783203 20.93652344 -0.85546875 19.8515625 C-4.81456849 17.34479583 -8.75672078 18.46353443 -13.1875 19.375 C-16.71749181 20.34570664 -20.1317711 21.53830341 -23.5625 22.8125 C-24.43777344 23.12509766 -25.31304687 23.43769531 -26.21484375 23.75976562 C-29.99009466 25.12289057 -33.62054531 26.5248506 -37.1875 28.375 C-37.1875 29.035 -37.1875 29.695 -37.1875 30.375 C-37.8475 30.375 -38.5075 30.375 -39.1875 30.375 C-40.58572971 31.75792019 -40.58572971 31.75792019 -42.0625 33.625 C-46.22594782 38.53192064 -50.75085249 43.02008988 -55.3203125 47.54296875 C-55.79758789 48.01653809 -56.27486328 48.49010742 -56.76660156 48.97802734 C-58.16158761 50.34952394 -59.57675137 51.70039999 -60.9921875 53.05078125 C-63.3808998 55.25264727 -63.3808998 55.25264727 -64.1875 58.375 C-64.8475 58.375 -65.5075 58.375 -66.1875 58.375 C-65.68527198 62.94445168 -63.97337988 65.24594975 -61 68.6875 C-57.5987401 72.68452199 -54.39776942 76.71994461 -51.37890625 81.01171875 C-50.98574219 81.46160156 -50.59257813 81.91148437 -50.1875 82.375 C-49.5275 82.375 -48.8675 82.375 -48.1875 82.375 C-46.93105142 80.6482513 -46.93105142 80.6482513 -45.75 78.5 C-44.01419206 75.46369645 -43.20095998 74.38397332 -40.1875 72.375 C-38.21484375 72.29296875 -38.21484375 72.29296875 -36.125 72.5625 C-35.43277344 72.63855469 -34.74054688 72.71460938 -34.02734375 72.79296875 C-32.1875 73.375 -32.1875 73.375 -30.1875 76.375 C-29.9313736 78.43805695 -29.9313736 78.43805695 -29.92248535 80.8536377 C-29.91007561 82.22903465 -29.91007561 82.22903465 -29.89741516 83.63221741 C-29.89888802 85.13781471 -29.89888802 85.13781471 -29.90039062 86.67382812 C-29.89355759 87.73258652 -29.88672455 88.79134491 -29.87968445 89.88218689 C-29.86608254 92.18371959 -29.85703821 94.48528265 -29.85197449 96.78684998 C-29.84370567 100.42575697 -29.82321994 104.06441057 -29.79943848 107.70324707 C-29.74294054 116.74064826 -29.70778872 125.77811093 -29.67181396 134.81561279 C-29.64061436 142.45026393 -29.60145475 150.08479256 -29.55155945 157.71934509 C-29.53143534 161.31067515 -29.52316025 164.90191133 -29.51525879 168.49328613 C-29.50229062 170.68758489 -29.48877094 172.88188049 -29.47460938 175.07617188 C-29.47608223 176.58176918 -29.47608223 176.58176918 -29.47758484 178.11778259 C-29.46517509 179.49317955 -29.46517509 179.49317955 -29.45251465 180.8963623 C-29.44958153 181.69350395 -29.44664841 182.4906456 -29.4436264 183.31194305 C-29.30565804 185.68305617 -29.30565804 185.68305617 -27.1875 188.375 C-24.83063559 188.82540013 -24.83063559 188.82540013 -22.03860474 188.74249268 C-20.94779602 188.74806183 -19.8569873 188.75363098 -18.73312378 188.7593689 C-16.92994186 188.74554672 -16.92994186 188.74554672 -15.09033203 188.73144531 C-13.82850098 188.73348969 -12.56666992 188.73553406 -11.26660156 188.73764038 C-7.79950542 188.74278468 -4.33270494 188.72921747 -0.86565638 188.71211338 C2.75997551 188.69709799 6.38560321 188.69825184 10.01126099 188.69744873 C16.10277362 188.69375306 22.19417378 188.6787732 28.28564453 188.65625 C36.10308183 188.62740383 43.92042839 188.61702945 51.73791313 188.6125679 C58.45694287 188.60858525 65.17595291 188.59608139 71.89496851 188.58222103 C74.05505866 188.5781243 76.21514811 188.57519744 78.37524033 188.57242584 C82.40237682 188.56661556 86.4294333 188.55193432 90.45654297 188.53613281 C91.65461578 188.53501495 92.8526886 188.53389709 94.08706665 188.53274536 C95.18351501 188.52703522 96.27996338 188.52132507 97.40963745 188.51544189 C98.83820729 188.5109799 98.83820729 188.5109799 100.29563713 188.50642776 C102.61351298 188.38539088 104.59337959 188.03075876 106.8125 187.375 C106.81581015 186.79962557 106.81912029 186.22425114 106.82253075 185.63144112 C106.90368113 171.64409479 106.99587359 157.656859 107.10002708 143.66966438 C107.15019126 136.90561316 107.19663361 130.14157429 107.234375 123.37744141 C107.27078047 116.85459547 107.31747727 110.33187108 107.37056351 103.80913925 C107.38915365 101.31558428 107.40424435 98.82200077 107.41584396 96.32840347 C107.4326275 92.84656293 107.46164319 89.36502984 107.49365234 85.88330078 C107.49689262 84.32316254 107.49689262 84.32316254 107.50019836 82.73150635 C107.51136185 81.78637177 107.52252533 80.84123718 107.5340271 79.86746216 C107.53955786 79.04337923 107.54508862 78.2192963 107.55078697 77.37024117 C107.8125 75.375 107.8125 75.375 109.8125 73.375 C112.6328125 72.96875 112.6328125 72.96875 115.8125 73.375 C118.3671875 75.34375 118.3671875 75.34375 120.6875 77.875 C121.46867188 78.7103125 122.24984375 79.545625 123.0546875 80.40625 C123.63476562 81.0559375 124.21484375 81.705625 124.8125 82.375 C128.10314074 81.27811975 128.40337416 80.87901976 130.1875 78.125 C131.87282252 75.62255141 133.33912715 73.87231044 135.5625 71.75 C137.9842142 69.19374612 138.51657962 67.82740447 138.8125 64.375 C139.8025 64.045 140.7925 63.715 141.8125 63.375 C141.26526317 60.00037285 140.7576 58.29265 138.8125 55.375 C138.1525 55.375 137.4925 55.375 136.8125 55.375 C136.8125 54.715 136.8125 54.055 136.8125 53.375 C136.1525 53.045 135.4925 52.715 134.8125 52.375 C134.338125 51.55 133.86375 50.725 133.375 49.875 C131.99930459 47.08344517 131.99930459 47.08344517 128.8125 46.375 C128.8125 45.715 128.8125 45.055 128.8125 44.375 C127.41414159 43.21538571 126.01164431 42.06043713 124.58984375 40.9296875 C122.6265779 39.21236924 120.99797806 37.3645398 119.3125 35.375 C113.74012424 28.91445081 108.98869957 25.78313732 100.8125 23.375 C98.1396441 22.51850474 95.47615266 21.63462882 92.8125 20.75 C92.140979 20.53150391 91.46945801 20.31300781 90.77758789 20.08789062 C85.92699013 18.48949013 85.92699013 18.48949013 84.8125 17.375 C81.58737942 16.95064203 80.3535834 16.8339166 78 19.1875 Z " fill="#FCF7FC" transform="translate(135.1875,72.625)"/>
<path d="M0 0 C0 0.66 0 1.32 0 2 C0.5775 2.0825 1.155 2.165 1.75 2.25 C4.65984734 3.21994911 5.90469895 4.77771101 8 7 C9.1446875 7.804375 9.1446875 7.804375 10.3125 8.625 C19.92450276 17.11932802 24.75461376 29.20440257 25.74487305 41.79541016 C26.17988958 49.58326709 25.98742667 57.25249841 25 65 C24.34 65 23.68 65 23 65 C22.896875 66.051875 22.79375 67.10375 22.6875 68.1875 C21.47730539 74.89857918 17.02810797 79.78337856 13 85.125 C12.46632813 85.84042969 11.93265625 86.55585938 11.3828125 87.29296875 C10.60550781 88.32744141 10.60550781 88.32744141 9.8125 89.3828125 C9.34457031 90.00559082 8.87664062 90.62836914 8.39453125 91.27001953 C3.17701093 97.74259464 -4.27490843 100.42496948 -12 103 C-13.32 103 -14.64 103 -16 103 C-16 103.66 -16 104.32 -16 105 C-19.00957631 106.0031921 -21.03865396 106.12896682 -24.18359375 106.1328125 C-25.19357422 106.13410156 -26.20355469 106.13539063 -27.24414062 106.13671875 C-28.29794922 106.13285156 -29.35175781 106.12898438 -30.4375 106.125 C-31.48744141 106.12886719 -32.53738281 106.13273437 -33.61914062 106.13671875 C-34.63041016 106.13542969 -35.64167969 106.13414062 -36.68359375 106.1328125 C-37.60712646 106.13168457 -38.53065918 106.13055664 -39.48217773 106.12939453 C-41.80166966 106.01019248 -43.77925811 105.65474662 -46 105 C-46 104.34 -46 103.68 -46 103 C-47.093125 102.95875 -48.18625 102.9175 -49.3125 102.875 C-57.33387005 101.87589697 -64.82220046 97.06542232 -70 91 C-70.73476562 90.16275391 -70.73476562 90.16275391 -71.484375 89.30859375 C-73.01253445 87.5572625 -74.50803795 85.78217933 -76 84 C-77.175625 82.63875 -77.175625 82.63875 -78.375 81.25 C-80 79 -80 79 -80 76 C-80.66 76 -81.32 76 -82 76 C-85.54871932 69.36543779 -86.12513724 64.3830972 -86 57 C-86.66 57 -87.32 57 -88 57 C-88 51.72 -88 46.44 -88 41 C-87.34 41 -86.68 41 -86 41 C-86.103125 39.9275 -86.20625 38.855 -86.3125 37.75 C-86.3451963 31.64669085 -83.55501559 26.41973004 -81 21 C-80.67773438 20.26265625 -80.35546875 19.5253125 -80.0234375 18.765625 C-79 17 -79 17 -76 15 C-75.319375 13.8553125 -75.319375 13.8553125 -74.625 12.6875 C-70.67593802 6.15635903 -64.66154169 2.43098873 -58 -1 C-57.34 -1 -56.68 -1 -56 -1 C-56 -1.66 -56 -2.32 -56 -3 C-54.68 -3 -53.36 -3 -52 -3 C-52 -3.66 -52 -4.32 -52 -5 C-33.58455509 -8.00222683 -17.04416194 -8.9181597 0 0 Z " fill="#FBF8FC" transform="translate(204,143)"/>
<path d="M0 0 C0.680625 0.06445312 1.36125 0.12890625 2.0625 0.1953125 C4.74954682 1.13794586 5.50469015 2.48258837 7 4.875 C7.38196754 7.06389809 7.38196754 7.06389809 7.39199829 9.48062134 C7.40309128 10.40037247 7.41418427 11.3201236 7.4256134 12.26774597 C7.42260727 13.26945328 7.41960114 14.27116058 7.41650391 15.30322266 C7.42508926 16.36373337 7.43367462 17.42424408 7.44252014 18.51689148 C7.46762647 22.02434894 7.47196295 25.53152333 7.4765625 29.0390625 C7.4908672 31.47237009 7.50662325 33.90566954 7.52377319 36.33895874 C7.5656714 42.74640285 7.5906397 49.15379655 7.61126709 55.56134033 C7.64705463 65.82536516 7.70794368 76.0892657 7.76975632 86.35316086 C7.78890064 89.94618446 7.80059207 93.53917483 7.81118774 97.13223267 C7.82139557 99.32334465 7.83175313 101.51445595 7.84228516 103.70556641 C7.84332748 104.71132217 7.84436981 105.71707794 7.84544373 106.75331116 C7.85089706 107.66742264 7.8563504 108.58153412 7.86196899 109.52334595 C7.86452509 110.32011057 7.86708118 111.11687519 7.86971474 111.93778419 C7.88028983 113.95740258 7.88028983 113.95740258 9 115.875 C52.56 115.875 96.12 115.875 141 115.875 C141 116.865 141 117.855 141 118.875 C141.99 118.875 142.98 118.875 144 118.875 C145.88453599 121.64637645 145.99438022 122.95367687 145.75 126.375 C145.11776234 129.3254424 144.39459297 131.26871151 143 133.875 C125.11068265 133.94510322 107.22140099 133.9979946 89.33197594 134.03043652 C81.02546978 134.04590072 72.71904901 134.06698167 64.41259766 134.10131836 C57.17209078 134.13123443 49.93164575 134.15057826 42.69107878 134.15726548 C38.85778054 134.16117402 35.0246592 134.1703502 31.19141769 134.19219017 C27.58156116 134.21259029 23.971954 134.21882674 20.36204529 134.21432304 C18.40939144 134.21553865 16.45676459 134.23166235 14.50418091 134.2482605 C7.63168135 134.22402404 2.53655303 134.05712723 -2.79296875 129.26171875 C-3.25316406 128.70097656 -3.71335937 128.14023437 -4.1875 127.5625 C-4.65542969 127.00949219 -5.12335938 126.45648438 -5.60546875 125.88671875 C-9.6002001 120.12401106 -10.430314 115.75446625 -10.34057617 108.93212891 C-10.34123329 107.61408264 -10.34123329 107.61408264 -10.34190369 106.26940918 C-10.33982225 103.37989688 -10.31652164 100.4909728 -10.29296875 97.6015625 C-10.2873705 95.5923189 -10.28310149 93.58307119 -10.28010559 91.57382202 C-10.26867485 86.29657602 -10.2392228 81.01957941 -10.20599365 75.74243164 C-10.17525464 70.35306166 -10.16159206 64.96365121 -10.14648438 59.57421875 C-10.11435149 49.00770319 -10.06317647 38.44137237 -10 27.875 C-10.99 27.545 -11.98 27.215 -13 26.875 C-12.34 26.545 -11.68 26.215 -11 25.875 C-10.94392578 23.90466797 -10.94392578 23.90466797 -10.88671875 21.89453125 C-10.82104343 20.15882636 -10.75459663 18.42315053 -10.6875 16.6875 C-10.66494141 15.82318359 -10.64238281 14.95886719 -10.61914062 14.06835938 C-10.41609473 9.25063411 -10.16884809 5.75138186 -7 1.875 C-3.88134716 -0.2041019 -3.46260478 -0.40659374 0 0 Z " fill="#FDC758" transform="translate(99,144.125)"/>
<path d="M0 0 C0.94617188 -0.01546875 1.89234375 -0.0309375 2.8671875 -0.046875 C8.4591112 -0.01589481 12.46232449 0.69820455 17.29492188 3.56933594 C19.76022271 4.91494401 22.23376531 5.22337653 25 5.5 C25 6.49 25 7.48 25 8.5 C25.598125 8.78875 26.19625 9.0775 26.8125 9.375 C29 10.5 29 10.5 32 12.5 C32.2165625 13.7375 32.2165625 13.7375 32.4375 15 C32.623125 15.825 32.80875 16.65 33 17.5 C33.61875 17.809375 34.2375 18.11875 34.875 18.4375 C38.10037805 20.05018903 38.7324456 22.20435856 40 25.5 C40.1875 28.875 40.1875 28.875 40 31.5 C40.66 31.5 41.32 31.5 42 31.5 C43.42596905 37.89947087 44.54490279 44.74124501 41.25 50.625 C39.05669289 52.45275592 37.80972581 53.19895795 35 53.5 C35 54.16 35 54.82 35 55.5 C22.82977227 59.24468545 10.96575426 58.06535376 -0.4375 52.4375 C-1.62801632 51.79724392 -2.81562148 51.15154008 -4 50.5 C-5.33098596 49.8286591 -6.66374278 49.16078654 -8 48.5 C-8 47.84 -8 47.18 -8 46.5 C-9.11375 46.21125 -10.2275 45.9225 -11.375 45.625 C-15 44.5 -15 44.5 -17 42.5 C-19.81361372 41.56101754 -22.37601343 41.38125724 -25.328125 41.40234375 C-26.52695313 41.40717773 -26.52695313 41.40717773 -27.75 41.41210938 C-28.9875 41.42467773 -28.9875 41.42467773 -30.25 41.4375 C-31.09046875 41.44201172 -31.9309375 41.44652344 -32.796875 41.45117188 C-34.86461401 41.46292039 -36.93231624 41.48085478 -39 41.5 C-39 42.16 -39 42.82 -39 43.5 C-40.32 43.5 -41.64 43.5 -43 43.5 C-42.02353481 34.3863249 -39.95499716 26.79397464 -36 18.5 C-35.34 18.5 -34.68 18.5 -34 18.5 C-33.7525 17.901875 -33.505 17.30375 -33.25 16.6875 C-31.81927475 14.18373081 -30.4308418 13.01927612 -28 11.5 C-27.34 11.5 -26.68 11.5 -26 11.5 C-26 10.51 -26 9.52 -26 8.5 C-21.3125 5.765625 -21.3125 5.765625 -19 4.5 C-18.45601562 4.16484375 -17.91203125 3.8296875 -17.3515625 3.484375 C-11.58397488 0.18861064 -6.55516255 -0.10716887 0 0 Z " fill="#A86EE1" transform="translate(173,148.5)"/>
<path d="M0 0 C0.33 0 0.66 0 1 0 C0.99920441 1.10532074 0.99840881 2.21064148 0.99758911 3.34945679 C0.99397791 13.79502274 1.02191072 24.24009807 1.0802784 34.68550682 C1.10928051 40.05494081 1.12738713 45.42393992 1.12011719 50.79345703 C1.11350252 55.98093207 1.13613073 61.16754938 1.17855453 66.35484695 C1.18964771 68.32822235 1.19042031 70.30168512 1.18042374 72.27506638 C0.88359897 87.23636154 0.88359897 87.23636154 8 100 C8.4565799 100.53410492 8.91315979 101.06820984 9.38357544 101.61849976 C13.10470153 104.79881311 17.08837567 105.2525298 21.84028625 105.2784729 C23.59232613 105.29521812 23.59232613 105.29521812 25.37976074 105.31230164 C26.65218628 105.31446182 27.92461182 105.31662201 29.2355957 105.31884766 C30.59592787 105.3281509 31.95625434 105.33832017 33.3165741 105.34928894 C37.00209884 105.37655842 40.68758542 105.39172925 44.37318444 105.40471697 C48.22760911 105.42036089 52.081956 105.44714709 55.93632507 105.4727478 C63.23181854 105.51951327 70.52732668 105.55626817 77.82289332 105.58942068 C86.13003351 105.62765784 94.43709555 105.67706383 102.74416983 105.72740483 C119.82939 105.83069148 136.91465542 105.91996249 154 106 C153.67 106.66 153.34 107.32 153 108 C145.76210948 109.18810019 138.54720868 109.13612115 131.22827148 109.11352539 C129.97850021 109.11367142 128.72872894 109.11381744 127.44108582 109.1139679 C124.04087648 109.11339379 120.64072911 109.10840531 117.24053073 109.10139394 C113.67712512 109.09510977 110.11371853 109.09455261 106.55030823 109.09336853 C99.81448312 109.09027007 93.07867439 109.08207684 86.34285647 109.07201904 C78.66927729 109.06081161 70.9956973 109.05533582 63.32211196 109.05032361 C47.54806518 109.03989287 31.77403471 109.02232239 16 109 C15.67 108.01 15.34 107.02 15 106 C12.89415562 105.19436362 12.89415562 105.19436362 10.4375 104.8125 C9.19806641 104.57466797 9.19806641 104.57466797 7.93359375 104.33203125 C7.29550781 104.22246094 6.65742187 104.11289062 6 104 C6 103.01 6 102.02 6 101 C5.34 101 4.68 101 4 101 C-2.30854533 91.06095727 -1.66524395 81.06096788 -1.5234375 69.74609375 C-1.51663805 67.79363094 -1.51192191 65.84115987 -1.50918579 63.88868713 C-1.49585065 58.78141015 -1.4516518 53.67484039 -1.40161133 48.56781006 C-1.36604211 44.3837768 -1.35310213 40.19981231 -1.34119225 36.01565456 C-1.3264383 31.02992358 -1.30122151 26.0442672 -1.2734375 21.05859375 C-1.26852673 20.10617735 -1.26361595 19.15376095 -1.25855637 18.17248344 C-1.24233533 15.49177699 -1.2189382 12.81124188 -1.19287109 10.13061523 C-1.18861115 9.33222229 -1.1843512 8.53382935 -1.17996216 7.71124268 C-1.11514875 2.2302975 -1.11514875 2.2302975 0 0 Z " fill="#AB6CBD" transform="translate(88,172)"/>
<path d="M0 0 C43.89 0 87.78 0 133 0 C133 0.99 133 1.98 133 3 C133.99 3 134.98 3 136 3 C137.88453599 5.77137645 137.99438022 7.07867687 137.75 10.5 C137 14 137 14 135 18 C89.46 18 43.92 18 -3 18 C-3 17.67 -3 17.34 -3 17 C-2.16506012 16.98969254 -1.33012024 16.97938507 -0.46987915 16.96876526 C7.38798973 16.87090025 15.24578142 16.76840161 23.10352135 16.66066074 C27.14353051 16.6054309 31.18354691 16.55201081 35.22363281 16.50268555 C39.12050405 16.45504287 43.01728609 16.40270011 46.91405106 16.34705925 C48.40281588 16.32663525 49.89160516 16.30792224 51.38041306 16.29092598 C53.46121843 16.26688289 55.54185475 16.23682841 57.62255859 16.20532227 C59.40126846 16.18200584 59.40126846 16.18200584 61.21591187 16.15821838 C63.95638065 16.18670351 63.95638065 16.18670351 66 15 C68.09355019 14.90832211 70.19009177 14.88249067 72.28564453 14.88647461 C72.92967224 14.88632858 73.57369995 14.88618256 74.23724365 14.8860321 C76.36913402 14.8867296 78.50093737 14.89451434 80.6328125 14.90234375 C82.10968986 14.90420851 83.58656784 14.90563214 85.06344604 14.90663147 C88.95312199 14.91045208 92.84276067 14.92027848 96.73242188 14.93133545 C100.70051571 14.94155936 104.66861555 14.94613119 108.63671875 14.95117188 C116.42449616 14.96190115 124.21224286 14.97897211 132 15 C132.5745952 11.26513121 133 7.78706732 133 4 C111.88 4 90.76 4 69 4 C69 3.34 69 2.68 69 2 C46.23 2 23.46 2 0 2 C0 1.34 0 0.68 0 0 Z " fill="#F4A980" transform="translate(107,260)"/>
<path d="M0 0 C0.680625 0.06445312 1.36125 0.12890625 2.0625 0.1953125 C4.75183573 1.13874882 5.50540276 2.47849705 7 4.875 C7.38476086 7.10071945 7.38476086 7.10071945 7.39872742 9.57000732 C7.41753464 10.97921196 7.41753464 10.97921196 7.4367218 12.41688538 C7.43456917 13.95221169 7.43456917 13.95221169 7.43237305 15.51855469 C7.4425647 16.60178513 7.45275635 17.68501556 7.46325684 18.80107117 C7.49346138 22.38305788 7.50266441 25.9647775 7.51171875 29.546875 C7.52855985 32.0298146 7.54670932 34.51274564 7.56611633 36.9956665 C7.60882152 42.86393982 7.63832607 48.73216348 7.66143972 54.60054421 C7.691149 61.93821825 7.74134611 69.27571736 7.79101562 76.61328125 C7.87712572 89.70045589 7.94500624 102.78765952 8 115.875 C7.34 115.545 6.68 115.215 6 114.875 C5.99576806 114.32539423 5.99153612 113.77578846 5.98717594 113.20952797 C5.88395655 99.84811021 5.77526936 86.48674662 5.66066074 73.12542152 C5.6054036 66.66403565 5.55197915 60.20264528 5.50268555 53.74121094 C5.45508316 47.51017583 5.40274189 41.27919718 5.34705925 35.04822922 C5.32661697 32.66630833 5.30790704 30.28437194 5.29092598 27.90242386 C5.26692342 24.57633083 5.2368632 21.25034526 5.20532227 17.92431641 C5.19668907 16.4343087 5.19668907 16.4343087 5.18788147 14.91419983 C5.17809265 14.01113602 5.16830383 13.1080722 5.15821838 12.17764282 C5.15176583 11.39043161 5.14531328 10.60322041 5.1386652 9.79215431 C5.11638447 7.78983208 5.11638447 7.78983208 4 5.875 C3.01 5.875 2.02 5.875 1 5.875 C1 5.215 1 4.555 1 3.875 C-0.65 4.205 -2.3 4.535 -4 4.875 C-4 5.535 -4 6.195 -4 6.875 C-4.99 7.37 -4.99 7.37 -6 7.875 C-6.98166364 14.18760798 -7.16185642 20.43170302 -7.19287109 26.81005859 C-7.20104858 27.7593071 -7.20922607 28.7085556 -7.21765137 29.68656921 C-7.24227628 32.79885254 -7.25895805 35.91109114 -7.2734375 39.0234375 C-7.28142302 40.62879805 -7.28142302 40.62879805 -7.28956985 42.26659012 C-7.31619609 47.92674286 -7.3356082 53.58687431 -7.35009766 59.24707031 C-7.36344994 63.9123082 -7.39134241 68.57711009 -7.43212891 73.2421875 C-7.48157538 78.90011416 -7.50623204 84.55764489 -7.51332474 90.21577835 C-7.52001121 92.3614498 -7.53516475 94.5071133 -7.55921555 96.65266037 C-8.15205119 112.58050992 -8.15205119 112.58050992 -2 126.875 C0.25714447 128.97933553 2.29278606 130.33560384 5 131.875 C4.34 132.205 3.68 132.535 3 132.875 C-2.18311447 130.71536897 -5.01784733 126.4313095 -8 121.875 C-8.35279022 121.3527887 -8.70558044 120.83057739 -9.06906128 120.2925415 C-10.4733135 116.64585892 -10.26053684 113.01134311 -10.22705078 109.15917969 C-10.22734283 108.28077423 -10.22763489 107.40236877 -10.22793579 106.49734497 C-10.22654367 103.59708745 -10.21098794 100.69708758 -10.1953125 97.796875 C-10.19158195 95.78477112 -10.18873518 93.77266543 -10.18673706 91.76055908 C-10.1791039 86.46690854 -10.15945807 81.17336789 -10.1373291 75.87976074 C-10.11686389 70.47714728 -10.10773389 65.07451605 -10.09765625 59.671875 C-10.07621193 49.07286841 -10.04207975 38.47394334 -10 27.875 C-10.99 27.545 -11.98 27.215 -13 26.875 C-12.34 26.545 -11.68 26.215 -11 25.875 C-10.94392578 23.90466797 -10.94392578 23.90466797 -10.88671875 21.89453125 C-10.82104343 20.15882636 -10.75459663 18.42315053 -10.6875 16.6875 C-10.66494141 15.82318359 -10.64238281 14.95886719 -10.61914062 14.06835938 C-10.41609473 9.25063411 -10.16884809 5.75138186 -7 1.875 C-3.88134716 -0.2041019 -3.46260478 -0.40659374 0 0 Z " fill="#ECCFA3" transform="translate(99,144.125)"/>
<path d="M0 0 C0.99 0.495 0.99 0.495 2 1 C2.01030746 2.31100677 2.02061493 3.62201355 2.03123474 4.9727478 C2.12882609 17.30430271 2.23154639 29.63580554 2.33933926 41.96727562 C2.39459553 48.30759284 2.44801984 54.64791465 2.49731445 60.98828125 C2.54491812 67.10260774 2.59725944 73.21687671 2.65294075 79.3311348 C2.67338245 81.66839803 2.69209247 84.00567705 2.70907402 86.34296799 C2.73307787 89.60679605 2.76313791 92.87051465 2.79467773 96.13427734 C2.8004332 97.10891434 2.80618866 98.08355133 2.81211853 99.08772278 C2.82190735 99.97395828 2.83169617 100.86019379 2.84178162 101.77328491 C2.84823417 102.54574743 2.85468672 103.31820995 2.8613348 104.11408043 C2.88638037 106.08977948 2.88638037 106.08977948 4 108 C46.24 108.33 88.48 108.66 132 109 C132 109.33 132 109.66 132 110 C115.08466841 110.07001106 98.16938189 110.12294929 81.25393867 110.15543652 C73.40020028 110.17092032 65.54655179 110.19203858 57.69287109 110.22631836 C50.84940052 110.25617459 44.00599505 110.27556399 37.16246116 110.28226548 C33.5372022 110.2861842 29.91212948 110.29542472 26.28693008 110.31719017 C22.24475004 110.34126337 18.20289596 110.34197244 14.16064453 110.34057617 C12.95223907 110.351362 11.74383362 110.36214783 10.49880981 110.3732605 C8.85392578 110.36707451 8.85392578 110.36707451 7.17581177 110.36076355 C6.21899065 110.36352893 5.26216953 110.36629431 4.27635384 110.36914349 C3.52515707 110.24732614 2.7739603 110.12550879 2 110 C-0.09637746 106.8554338 -0.24889851 106.15521392 -0.24050903 102.57710266 C-0.24325836 101.67266418 -0.24600769 100.76822571 -0.24884033 99.83638 C-0.24164978 98.84663681 -0.23445923 97.85689362 -0.22705078 96.8371582 C-0.22734283 95.79308807 -0.22763489 94.74901794 -0.22793579 93.67330933 C-0.22654033 90.21571598 -0.21096877 86.75833704 -0.1953125 83.30078125 C-0.19158314 80.9061037 -0.18873581 78.51142462 -0.18673706 76.116745 C-0.17909453 69.8087443 -0.15944064 63.50083546 -0.1373291 57.19287109 C-0.11688407 50.75815066 -0.10773821 44.32341541 -0.09765625 37.88867188 C-0.0761954 25.25907536 -0.04243544 12.62954256 0 0 Z " fill="#BA89AB" transform="translate(106,151)"/>
<path d="M0 0 C2.84347647 2.21159281 4.88536136 4.55475328 6 8 C5.625 11.25 5.625 11.25 5 14 C4.34 14 3.68 14 3 14 C2.34 15.32 1.68 16.64 1 18 C-0.60332791 18.08121924 -2.20784026 18.13929134 -3.8125 18.1875 C-5.15248047 18.23970703 -5.15248047 18.23970703 -6.51953125 18.29296875 C-9 18 -9 18 -10.8046875 16.8671875 C-12.52082725 14.18642017 -12.36234012 12.09276292 -12.3125 8.9375 C-12.30863281 7.87402344 -12.30476562 6.81054688 -12.30078125 5.71484375 C-12 3 -12 3 -10 1 C-6.67331236 -0.18810273 -3.50122002 -0.36471042 0 0 Z " fill="#FAF0FD" transform="translate(196,170)"/>
<path d="M0 0 C0.99 0.33 1.98 0.66 3 1 C2.67 1.33 2.34 1.66 2 2 C1.89228095 3.4543728 1.85318741 4.91389576 1.84178162 6.37220764 C1.8319928 7.31596756 1.82220398 8.25972748 1.81211853 9.23208618 C1.80636307 10.27577362 1.8006076 11.31946106 1.79467773 12.39477539 C1.78477814 13.48732132 1.77487854 14.57986725 1.76467896 15.70552063 C1.7329555 19.33621006 1.70826382 22.96691259 1.68359375 26.59765625 C1.66303358 29.10729829 1.64203737 31.61693678 1.62062073 34.12657166 C1.5709649 40.06931321 1.52572477 46.01207811 1.48259836 51.95486969 C1.42843131 59.38205936 1.36745412 66.80919042 1.30664062 74.23632812 C1.1989408 87.49084558 1.09733302 100.74540257 1 114 C-0.32 114 -1.64 114 -3 114 C-2.83748025 113.27039975 -2.6749605 112.5407995 -2.50751591 111.78909016 C-2.04278755 109.23514204 -1.87667512 106.96287782 -1.87974548 104.3745575 C-1.87837082 103.47578384 -1.87699615 102.57701019 -1.87557983 101.65100098 C-1.87917511 100.67779907 -1.88277039 99.70459717 -1.88647461 98.7019043 C-1.88632858 97.66729568 -1.88618256 96.63268707 -1.8860321 95.56672668 C-1.88672786 92.15253593 -1.89450456 88.73839996 -1.90234375 85.32421875 C-1.90420912 82.95481903 -1.90563246 80.58541892 -1.90663147 78.21601868 C-1.91044724 71.98370293 -1.92026953 65.75141053 -1.93133545 59.519104 C-1.94156976 53.15792151 -1.94613342 46.79673523 -1.95117188 40.43554688 C-1.96189261 27.957021 -1.97895778 15.47851244 -2 3 C-1.34 3 -0.68 3 0 3 C0 2.01 0 1.02 0 0 Z " fill="#C38ADF" transform="translate(241,146)"/>
<path d="M0 0 C0.33 0 0.66 0 1 0 C0.99920441 1.10532074 0.99840881 2.21064148 0.99758911 3.34945679 C0.99397791 13.79502274 1.02191072 24.24009807 1.0802784 34.68550682 C1.10928051 40.05494081 1.12738713 45.42393992 1.12011719 50.79345703 C1.11350252 55.98093207 1.13613073 61.16754938 1.17855453 66.35484695 C1.18964771 68.32822235 1.19042031 70.30168512 1.18042374 72.27506638 C1.12860228 84.01509965 1.21520693 92.65026254 9.55471802 101.68417358 C11.44808741 103.4079517 13.25008082 103.94567677 15.6875 104.6875 C16.49574219 104.93886719 17.30398437 105.19023437 18.13671875 105.44921875 C18.75160156 105.63097656 19.36648437 105.81273437 20 106 C20 106.33 20 106.66 20 107 C15.03083364 106.48594831 10.70973649 105.76615118 6 104 C6 103.01 6 102.02 6 101 C5.34 101 4.68 101 4 101 C-2.30854533 91.06095727 -1.66524395 81.06096788 -1.5234375 69.74609375 C-1.51663805 67.79363094 -1.51192191 65.84115987 -1.50918579 63.88868713 C-1.49585065 58.78141015 -1.4516518 53.67484039 -1.40161133 48.56781006 C-1.36604211 44.3837768 -1.35310213 40.19981231 -1.34119225 36.01565456 C-1.3264383 31.02992358 -1.30122151 26.0442672 -1.2734375 21.05859375 C-1.26852673 20.10617735 -1.26361595 19.15376095 -1.25855637 18.17248344 C-1.24233533 15.49177699 -1.2189382 12.81124188 -1.19287109 10.13061523 C-1.18861115 9.33222229 -1.1843512 8.53382935 -1.17996216 7.71124268 C-1.11514875 2.2302975 -1.11514875 2.2302975 0 0 Z " fill="#9378BA" transform="translate(88,172)"/>
<path d="M0 0 C1.32 0.33 2.64 0.66 4 1 C4.73294234 9.06236571 2.19833057 13.98284082 -2.78515625 20.2421875 C-4.93771866 22.73751463 -7.10683984 25.17096416 -9.5234375 27.4140625 C-11.12325787 29.01932825 -11.12325787 29.01932825 -12.37890625 31.328125 C-14.27905712 34.45993993 -16.48984738 37.02629633 -18.9375 39.75 C-19.79214844 40.71421875 -20.64679688 41.6784375 -21.52734375 42.671875 C-25.75439223 46.65184482 -29.34021098 46.1088421 -35 46 C-35 45.67 -35 45.34 -35 45 C-33.989375 44.79375 -32.97875 44.5875 -31.9375 44.375 C-27.33761888 43.07807612 -24.36700845 40.27533248 -21 37 C-20.46246094 36.4946875 -19.92492187 35.989375 -19.37109375 35.46875 C-17.81959356 33.95974997 -17.81959356 33.95974997 -16.8125 31.4375 C-14.63638086 27.3103775 -11.89341896 23.96131623 -8.9375 20.3671875 C-6.99610693 18.05297192 -6.99610693 18.05297192 -5.375 15.6953125 C-4.694375 14.85613281 -4.694375 14.85613281 -4 14 C-3.34 14 -2.68 14 -2 14 C-0.09391902 10.78817851 0.22266247 8.46117397 0.125 4.75 C0.10695313 3.85796875 0.08890625 2.9659375 0.0703125 2.046875 C0.04710937 1.37140625 0.02390625 0.6959375 0 0 Z " fill="#C176CF" transform="translate(296,127)"/>
<path d="M0 0 C2 2 2 2 2.125 5.125 C2.08375 6.07375 2.0425 7.0225 2 8 C2.66 8 3.32 8 4 8 C5.42596905 14.39947087 6.54490279 21.24124501 3.25 27.125 C1.05669289 28.95275592 -0.19027419 29.69895795 -3 30 C-3 30.66 -3 31.32 -3 32 C-15.17022773 35.74468545 -27.03424574 34.56535376 -38.4375 28.9375 C-39.62801632 28.29724392 -40.81562148 27.65154008 -42 27 C-43.33098596 26.3286591 -44.66374278 25.66078654 -46 25 C-45.67 24.34 -45.34 23.68 -45 23 C-43.88625 23.4125 -42.7725 23.825 -41.625 24.25 C-40.88636719 24.52199219 -40.14773437 24.79398438 -39.38671875 25.07421875 C-37.82966606 25.6781819 -36.28845985 26.32523989 -34.76953125 27.01953125 C-28.23602655 29.94155094 -22.48458521 30.64558687 -15.375 30.75 C-14.37082031 30.77964844 -13.36664063 30.80929688 -12.33203125 30.83984375 C-9.88794463 30.9096748 -7.44476321 30.9627929 -5 31 C-5 30.34 -5 29.68 -5 29 C-4.01 29 -3.02 29 -2 29 C-1.31379969 27.67661368 -0.65213539 26.34050052 0 25 C0.37125 24.236875 0.7425 23.47375 1.125 22.6875 C2.20564025 19.36839066 2.13600176 16.46804489 2 13 C1.67 13 1.34 13 1 13 C0.67 8.71 0.34 4.42 0 0 Z " fill="#B689DB" transform="translate(211,172)"/>
<path d="M0 0 C2.63734379 0.99103473 3.42064413 2.34504977 4.90234375 4.71484375 C5.28710461 6.9405632 5.28710461 6.9405632 5.30107117 9.40985107 C5.31987839 10.81905571 5.31987839 10.81905571 5.33906555 12.25672913 C5.33691292 13.79205544 5.33691292 13.79205544 5.3347168 15.35839844 C5.34490845 16.44162888 5.3551001 17.52485931 5.36560059 18.64091492 C5.39580513 22.22290163 5.40500816 25.80462125 5.4140625 29.38671875 C5.4309036 31.86965835 5.44905307 34.35258939 5.46846008 36.83551025 C5.51116527 42.70378357 5.54066982 48.57200723 5.56378347 54.44038796 C5.59349275 61.778062 5.64368986 69.11556111 5.69335938 76.453125 C5.77946947 89.54029964 5.84734999 102.62750327 5.90234375 115.71484375 C5.24234375 115.38484375 4.58234375 115.05484375 3.90234375 114.71484375 C3.89811181 114.16523798 3.89387987 113.61563221 3.88951969 113.04937172 C3.7863003 99.68795396 3.67761311 86.32659037 3.56300449 72.96526527 C3.50774735 66.5038794 3.4543229 60.04248903 3.4050293 53.58105469 C3.35742691 47.35001958 3.30508564 41.11904093 3.249403 34.88807297 C3.22896072 32.50615208 3.21025079 30.12421569 3.19326973 27.74226761 C3.16926717 24.41617458 3.13920695 21.09018901 3.10766602 17.76416016 C3.10191055 16.77082169 3.09615509 15.77748322 3.09022522 14.75404358 C3.0804364 13.85097977 3.07064758 12.94791595 3.06056213 12.01748657 C3.05410958 11.23027536 3.04765703 10.44306416 3.04100895 9.63199806 C3.01872822 7.62967583 3.01872822 7.62967583 1.90234375 5.71484375 C0.91234375 5.71484375 -0.07765625 5.71484375 -1.09765625 5.71484375 C-1.09765625 5.05484375 -1.09765625 4.39484375 -1.09765625 3.71484375 C-3.40765625 3.38484375 -5.71765625 3.05484375 -8.09765625 2.71484375 C-8.09765625 3.37484375 -8.09765625 4.03484375 -8.09765625 4.71484375 C-8.75765625 4.71484375 -9.41765625 4.71484375 -10.09765625 4.71484375 C-10.42765625 5.37484375 -10.75765625 6.03484375 -11.09765625 6.71484375 C-10.74614785 4.16640786 -10.22936604 2.86762711 -8.53515625 0.90234375 C-5.42862579 -0.61109417 -3.36949954 -0.36864007 0 0 Z " fill="#F9D088" transform="translate(101.09765625,144.28515625)"/>
<path d="M0 0 C1.17755859 -0.01160156 1.17755859 -0.01160156 2.37890625 -0.0234375 C3.05824219 0.10804688 3.73757812 0.23953125 4.4375 0.375 C6.74191554 3.83162331 6.69610135 5.32357881 6.4375 9.375 C6.1075 10.035 5.7775 10.695 5.4375 11.375 C2.55538698 12.33570434 0.73899956 12.48081883 -2.25 12.4375 C-3.46236328 12.42396484 -3.46236328 12.42396484 -4.69921875 12.41015625 C-5.62154297 12.39275391 -5.62154297 12.39275391 -6.5625 12.375 C-8.08741998 9.32516004 -7.79812548 6.7326631 -7.5625 3.375 C-5.37802422 0.35834297 -3.64285923 -0.03600849 0 0 Z " fill="#B484DF" transform="translate(183.5625,213.625)"/>
<path d="M0 0 C-1.65 0.33 -3.3 0.66 -5 1 C-5 1.66 -5 2.32 -5 3 C-5.75023437 3.24234375 -6.50046875 3.4846875 -7.2734375 3.734375 C-10.52418956 4.798853 -13.76306873 5.89423979 -17 7 C-17.90492187 7.30035156 -18.80984375 7.60070312 -19.7421875 7.91015625 C-28.34370312 11.00509411 -33.87292461 16.41694306 -39.62109375 23.35546875 C-41.62173271 25.74149992 -43.70348488 27.89486114 -46 30 C-46.66 30 -47.32 30 -48 30 C-48.4021875 30.9590625 -48.4021875 30.9590625 -48.8125 31.9375 C-50 34 -50 34 -53 35 C-53.495 33.515 -53.495 33.515 -54 32 C-52.515 31.505 -52.515 31.505 -51 31 C-47.26185892 27.8647849 -45.28190255 24.23781903 -43 20 C-41.68 20 -40.36 20 -39 20 C-38.731875 19.360625 -38.46375 18.72125 -38.1875 18.0625 C-37 16 -37 16 -34 15 C-34 14.01 -34 13.02 -34 12 C-26.71428571 7.57142857 -26.71428571 7.57142857 -22 7 C-22 6.34 -22 5.68 -22 5 C-21.21753906 4.80664062 -20.43507812 4.61328125 -19.62890625 4.4140625 C-18.61699219 4.15367188 -17.60507813 3.89328125 -16.5625 3.625 C-15.55316406 3.36976562 -14.54382813 3.11453125 -13.50390625 2.8515625 C-10.84429676 2.27426046 -10.84429676 2.27426046 -10 0 C-6.35526801 -0.89093449 -3.57257469 -1.23666047 0 0 Z " fill="#957ADE" transform="translate(118,76)"/>
<path d="M0 0 C1.32 0.33 2.64 0.66 4 1 C3.01 1 2.02 1 1 1 C1.10835416 10.37213203 1.22114459 19.74419781 1.33933926 29.11621094 C1.39410926 33.46970452 1.44744652 37.8232051 1.49731445 42.17675781 C1.54564704 46.39138616 1.59799763 50.60594844 1.65294075 54.82049561 C1.67305757 56.41492022 1.6918139 58.0093627 1.70907402 59.6038208 C1.73381521 61.86615488 1.76347724 64.1283716 1.79467773 66.390625 C1.80622973 67.46870926 1.80622973 67.46870926 1.8180151 68.568573 C1.87612158 72.21982073 2.04973112 75.81730395 2.41848755 79.45117188 C2.48614602 80.17125427 2.55380449 80.89133667 2.62351322 81.63323975 C2.81931872 83.60396961 3.0488077 85.57127053 3.28065491 87.53808594 C2.89391187 92.30861055 1.40791667 93.70524047 -2 97 C-3.485 97.495 -3.485 97.495 -5 98 C-5 97.34 -5 96.68 -5 96 C-4.34 96 -3.68 96 -3 96 C-2.855625 95.195625 -2.71125 94.39125 -2.5625 93.5625 C-2 91 -2 91 -1 90 C-0.8747903 87.20091293 -0.81391277 84.42529671 -0.79467773 81.62475586 C-0.78477814 80.74678848 -0.77487854 79.86882111 -0.76467896 78.96424866 C-0.73296573 76.04780825 -0.70826789 73.13135152 -0.68359375 70.21484375 C-0.66303269 68.19844629 -0.64203646 66.18205323 -0.62062073 64.16566467 C-0.56531241 58.84739734 -0.5159419 53.52909055 -0.46777344 48.21075439 C-0.4176222 42.78825349 -0.36190293 37.36581018 -0.30664062 31.94335938 C-0.19895198 21.29562207 -0.09753094 10.64783485 0 0 Z " fill="#C697DA" transform="translate(257,171)"/>
<path d="M0 0 C3.125 -0.5625 3.125 -0.5625 7 0 C11.9170916 4.85427297 13.68477361 10.07697221 13.746521 16.84667969 C13.72494934 17.80550049 13.70337769 18.76432129 13.68115234 19.75219727 C13.6820285 20.78738998 13.68290466 21.8225827 13.68380737 22.8891449 C13.67965508 26.28235547 13.6331122 29.67354463 13.5859375 33.06640625 C13.57473704 35.43007833 13.56620087 37.79376441 13.56021118 40.15745544 C13.53738024 46.35721778 13.47850498 52.5561272 13.4119873 58.7555542 C13.35044177 65.090174 13.3231699 71.42493257 13.29296875 77.75976562 C13.22875737 90.17355036 13.12644636 102.58670405 13 115 C12.67 115 12.34 115 12 115 C11.99635437 113.69787567 11.99270874 112.39575134 11.98895264 111.0541687 C11.95201079 98.78262271 11.89424664 86.51132785 11.81609726 74.23997307 C11.77658896 67.93113031 11.74441674 61.62242785 11.72900391 55.31347656 C11.71385971 49.22492339 11.67945317 43.1367558 11.63169098 37.04837418 C11.61685423 34.72560096 11.60895768 32.40277269 11.60811615 30.07995224 C11.60575175 26.82615807 11.57871281 23.57343405 11.54589844 20.31982422 C11.5509288 19.35956833 11.55595917 18.39931244 11.56114197 17.40995789 C11.47139617 11.65774919 10.81291077 8.39275562 7 4 C4.92789308 2.88783971 4.92789308 2.88783971 2.75 2.625 C1.5125 2.41875 0.275 2.2125 -1 2 C-0.67 1.34 -0.34 0.68 0 0 Z " fill="#976DD5" transform="translate(96,142)"/>
<path d="M0 0 C0.66 0 1.32 0 2 0 C7.64747612 6.21976553 7.41444766 16.11636815 7.8125 24.125 C7.85818115 25.02500732 7.9038623 25.92501465 7.95092773 26.85229492 C8.24138441 35.21049983 7.02347948 42.91751418 5 51 C3.515 51.495 3.515 51.495 2 52 C1.67 52.66 1.34 53.32 1 54 C1.66 50.7 2.32 47.4 3 44 C3.66 44 4.32 44 5 44 C5.37652734 23.51559445 5.37652734 23.51559445 0.5859375 3.70703125 C0 2 0 2 0 0 Z " fill="#BA83D8" transform="translate(224,164)"/>
<path d="M0 0 C5.625 -0.25 5.625 -0.25 9 2 C10.794375 2.4640625 10.794375 2.4640625 12.625 2.9375 C14.295625 3.4634375 14.295625 3.4634375 16 4 C16.33 4.99 16.66 5.98 17 7 C17.66 7.33 18.32 7.66 19 8 C19 8.99 19 9.98 19 11 C19.99 11 20.98 11 22 11 C22.33 12.32 22.66 13.64 23 15 C24.32 15.33 25.64 15.66 27 16 C27 16.66 27 17.32 27 18 C27.99 18.33 28.98 18.66 30 19 C31.68359375 20.92578125 31.68359375 20.92578125 33.4375 23.3125 C35.76963436 26.4689682 38.16741187 29.27947031 41 32 C36.37855051 32 34.20568746 29.12571189 31 26 C29.28921647 24.07989708 27.63157101 22.12125154 25.97265625 20.15625 C22.91418752 16.8131317 19.48208744 13.91900212 16.0390625 10.98046875 C14 9 14 9 13 6 C10.24469491 4.82022712 10.24469491 4.82022712 7 3.9375 C4.98344629 3.34537515 2.97807595 2.71015227 1 2 C0.67 1.34 0.34 0.68 0 0 Z " fill="#C996DF" transform="translate(245,82)"/>
<path d="M0 0 C1.14626322 0.97866338 2.29199788 1.95794587 3.4375 2.9375 C4.07558594 3.48277344 4.71367188 4.02804688 5.37109375 4.58984375 C6.26991149 5.36795695 7.15936528 6.15936528 8 7 C10.64 7 13.28 7 16 7 C15.67 34.39 15.34 61.78 15 90 C14.67 90 14.34 90 14 90 C14 63.6 14 37.2 14 10 C11.69 9.67 9.38 9.34 7 9 C3.23798379 7.41159316 2.26126157 6.63449239 0.6875 2.8125 C0.460625 1.884375 0.23375 0.95625 0 0 Z " fill="#8E6EE2" transform="translate(72,165)"/>
<path d="M0 0 C12.82871987 3.63953622 20.40509041 8.10505852 28.9375 18.5 C30.75403019 21.04590598 30.75403019 21.04590598 33 22 C33 22.66 33 23.32 33 24 C26.16274864 21.30108499 26.16274864 21.30108499 24.75 18.6875 C23.09633446 15.76144412 23.09633446 15.76144412 19.8125 13.875 C18.884375 13.25625 17.95625 12.6375 17 12 C17 11.01 17 10.02 17 9 C16.39671875 8.87882812 15.7934375 8.75765625 15.171875 8.6328125 C13.97304687 8.38144531 13.97304687 8.38144531 12.75 8.125 C11.96109375 7.96257812 11.1721875 7.80015625 10.359375 7.6328125 C8.03168856 7.00849925 6.10968048 6.15161458 4 5 C4 4.34 4 3.68 4 3 C2.68 2.34 1.36 1.68 0 1 C0 0.67 0 0.34 0 0 Z " fill="#BC7ED5" transform="translate(231,95)"/>
<path d="M0 0 C0.66 0.33 1.32 0.66 2 1 C1.67 1.99 1.34 2.98 1 4 C0.01 4 -0.98 4 -2 4 C-2 5.32 -2 6.64 -2 8 C-3.64453125 9.74609375 -3.64453125 9.74609375 -5.8125 11.4375 C-9.02003058 14.06338331 -10.96657719 16.3612434 -13 20 C-13.99 20.33 -14.98 20.66 -16 21 C-17.2065625 22.2375 -17.2065625 22.2375 -18.4375 23.5 C-20.96368997 25.96457558 -21.73096247 26.38922441 -25 27 C-24.06558465 25.72689688 -23.12732889 24.456612 -22.1875 23.1875 C-21.66542969 22.47980469 -21.14335938 21.77210937 -20.60546875 21.04296875 C-19.15747502 19.20038793 -17.76898495 17.53635131 -16 16 C-15.34 16 -14.68 16 -14 16 C-14 15.34 -14 14.68 -14 14 C-12.125 11.875 -12.125 11.875 -10 10 C-9.34 10 -8.68 10 -8 10 C-7.731875 9.360625 -7.46375 8.72125 -7.1875 8.0625 C-6 6 -6 6 -3 5 C-1.8499169 3.03327085 -1.8499169 3.03327085 -1 1 C-0.67 0.67 -0.34 0.34 0 0 Z " fill="#E4DBFB" transform="translate(80,96)"/>
<path d="M0 0 C0.495 1.485 0.495 1.485 1 3 C-1.9576209 8.80790878 -6.18439019 12.3158724 -12 15 C-12.66 15 -13.32 15 -14 15 C-14 15.66 -14 16.32 -14 17 C-18.40605632 17.84757725 -22.57785895 18.13475983 -27.0625 18.125 C-28.24972656 18.12757812 -29.43695313 18.13015625 -30.66015625 18.1328125 C-33.57434445 18.01692665 -36.17085017 17.67386177 -39 17 C-39 16.67 -39 16.34 -39 16 C-31.41 16 -23.82 16 -16 16 C-16 15.34 -16 14.68 -16 14 C-13.09451118 11.95830515 -11.59857954 11 -8 11 C-8 10.01 -8 9.02 -8 8 C-6.68 7.67 -5.36 7.34 -4 7 C-3.67 5.35 -3.34 3.7 -3 2 C-2.01 2 -1.02 2 0 2 C0 1.34 0 0.68 0 0 Z " fill="#AF82DB" transform="translate(200,78)"/>
<path d="M0 0 C0.99 0.33 1.98 0.66 3 1 C1.38150935 2.83946539 -0.24418831 4.67151417 -1.875 6.5 C-2.33519531 7.02464844 -2.79539062 7.54929687 -3.26953125 8.08984375 C-4.47172076 9.43141755 -5.73245946 10.71999185 -7 12 C-7.66 12 -8.32 12 -9 12 C-11.47037767 15.70556651 -11.7086715 19.6985288 -11 24 C-9.8820269 26.30399674 -8.61517256 27.9810343 -7 30 C-8.32 30 -9.64 30 -11 30 C-14.01759496 24.97067506 -14.46070653 21.71276096 -14 16 C-12.77823835 11.72383423 -9.32215697 9.75668344 -6 7 C-5.67 6.01 -5.34 5.02 -5 4 C-2.625 1.75 -2.625 1.75 0 0 Z " fill="#8F7AE1" transform="translate(61,112)"/>
<path d="M0 0 C2.9375 0.1875 2.9375 0.1875 3.9375 1.1875 C4.0625 4.6875 4.0625 4.6875 3.9375 8.1875 C2.9375 9.1875 2.9375 9.1875 0 9.375 C-3.0625 9.1875 -3.0625 9.1875 -5.0625 7.1875 C-5.3125 4.6875 -5.3125 4.6875 -5.0625 2.1875 C-3.0625 0.1875 -3.0625 0.1875 0 0 Z " fill="#A780D6" transform="translate(165.0625,224.8125)"/>
<path d="M0 0 C0 0.66 0 1.32 0 2 C-1.6501819 3.02697491 -3.32043536 4.0218178 -5 5 C-12.01916836 10.6827373 -18.10572293 17.18029296 -24 24 C-24 21 -24 21 -23 18 C-22.01 17.34 -21.02 16.68 -20 16 C-19.319375 14.8553125 -19.319375 14.8553125 -18.625 13.6875 C-15.22233617 8.06001751 -7.09267735 0 0 0 Z " fill="#EBD7F9" transform="translate(148,142)"/>
<path d="M0 0 C1 3 1 3 -0.3125 6.5625 C-3.34386584 12.35553722 -8.26777325 16.59288806 -13 21 C-13.99 20.67 -14.98 20.34 -16 20 C-15.5875 19.55011719 -15.175 19.10023438 -14.75 18.63671875 C-10.34564767 13.73097809 -6.42649866 8.59085816 -2.6015625 3.22265625 C-1 1 -1 1 0 0 Z " fill="#B87FD7" transform="translate(224,218)"/>
<path d="M0 0 C2 0 2 0 3.625 1 C5.80555119 4.17171082 5.58503994 7.34522111 5 11 C3.625 14.5 3.625 14.5 1 17 C-2.40436612 17.61498227 -5.59545544 17.61685128 -9 17 C-9.66 16.34 -10.32 15.68 -11 15 C-10.37351563 14.96261719 -9.74703125 14.92523438 -9.1015625 14.88671875 C-8.28429687 14.82097656 -7.46703125 14.75523437 -6.625 14.6875 C-5.81289062 14.62949219 -5.00078125 14.57148438 -4.1640625 14.51171875 C-1.62078662 14.17009472 -1.62078662 14.17009472 0 11 C0.66 11 1.32 11 2 11 C2.19622241 6.78121808 1.80230168 3.82989106 0 0 Z " fill="#BF90E0" transform="translate(199,173)"/>
<path d="M0 0 C2.64 0.33 5.28 0.66 8 1 C7.67 1.99 7.34 2.98 7 4 C8.07121094 4.13277344 9.14242187 4.26554687 10.24609375 4.40234375 C11.64325769 4.5805056 13.04039159 4.75890319 14.4375 4.9375 C15.14455078 5.02451172 15.85160156 5.11152344 16.58007812 5.20117188 C21.88671875 5.88671875 21.88671875 5.88671875 23 7 C25.86267567 7.07325168 28.700719 7.09238205 31.5625 7.0625 C32.77196289 7.05573242 32.77196289 7.05573242 34.00585938 7.04882812 C36.00393756 7.03700518 38.00197783 7.01906914 40 7 C32.18468454 12.21021031 17.67862463 8.63913315 9 7 C9 6.34 9 5.68 9 5 C8.443125 4.87625 7.88625 4.7525 7.3125 4.625 C4.77885636 3.94023145 2.42078968 3.00866237 0 2 C0 1.34 0 0.68 0 0 Z " fill="#EBD7FA" transform="translate(144,104)"/>
<path d="M0 0 C4.62 0 9.24 0 14 0 C10 4 10 4 6.75 4.25 C5.8425 4.1675 4.935 4.085 4 4 C1.65606334 7.66240103 1.92527425 10.74063226 2 15 C1.71479595 16.67557379 1.40044304 18.34817245 1 20 C0.67 20 0.34 20 0 20 C0 13.4 0 6.8 0 0 Z " fill="#B872D2" transform="translate(258,172)"/>
<path d="M0 0 C1.45606519 4.52092968 0.27032841 7.51648796 -1 12 C0.32 12 1.64 12 3 12 C3 11.34 3 10.68 3 10 C8.96674616 8.67405641 14.92583615 8.9115413 21 9 C21 9.33 21 9.66 21 10 C20.04738281 10.12117187 19.09476563 10.24234375 18.11328125 10.3671875 C16.85902344 10.53476563 15.60476562 10.70234375 14.3125 10.875 C13.07113281 11.03742188 11.82976562 11.19984375 10.55078125 11.3671875 C7.41234626 11.92651255 4.91614383 12.77407192 2 14 C-0.25 13.8125 -0.25 13.8125 -2 13 C-3.01425231 9.95724308 -3.30163331 8.16714972 -3 5 C-1.5 2.1875 -1.5 2.1875 0 0 Z " fill="#E5D4F9" transform="translate(131,180)"/>
<path d="M0 0 C16.70842825 -0.55353075 16.70842825 -0.55353075 25 3 C25 3.66 25 4.32 25 5 C26.98 4.67 28.96 4.34 31 4 C31 4.66 31 5.32 31 6 C32.32 6.33 33.64 6.66 35 7 C32.0982892 8.4508554 30.35850372 7.53872482 27.25 6.75 C26.22390625 6.49734375 25.1978125 6.2446875 24.140625 5.984375 C21 5 21 5 18.1328125 3.40234375 C14.13135449 1.61116741 10.94179625 1.66028024 6.625 1.8125 C5.52091797 1.83280273 5.52091797 1.83280273 4.39453125 1.85351562 C2.59603257 1.88855131 0.79791578 1.94234712 -1 2 C-0.67 1.34 -0.34 0.68 0 0 Z " fill="#C698E1" transform="translate(205,72)"/>
<path d="M0 0 C4.33737845 0.64599253 8.01917845 2.52529079 11.9375 4.4375 C9.23196571 5.79026714 7.89110849 5.0282217 4.9375 4.4375 C2.60448014 4.39925377 0.27038492 4.39175716 -2.0625 4.4375 C-2.248125 5.38625 -2.43375 6.335 -2.625 7.3125 C-4.0625 10.4375 -4.0625 10.4375 -7.6875 11.8125 C-8.80125 12.01875 -9.915 12.225 -11.0625 12.4375 C-9.78187515 10.7300002 -8.44482443 9.06376404 -7.0625 7.4375 C-6.4025 7.4375 -5.7425 7.4375 -5.0625 7.4375 C-4.876875 6.5403125 -4.876875 6.5403125 -4.6875 5.625 C-3.84432383 2.67388341 -3.17512582 0.67351154 0 0 Z " fill="#BF94DA" transform="translate(217.0625,89.5625)"/>
<path d="M0 0 C1.50062637 1.96000179 2.94208531 3.90762517 4.25390625 6 C8.13011286 11.92423219 12.30362942 13.98844204 19 16 C19 16.33 19 16.66 19 17 C14.03083364 16.48594831 9.70973649 15.76615118 5 14 C5 13.01 5 12.02 5 11 C4.34 11 3.68 11 3 11 C0.84694043 7.14243493 -0.39253254 4.44870215 0 0 Z " fill="#9B75BD" transform="translate(89,262)"/>
<path d="M0 0 C2 1 2 1 3.25390625 4.38671875 C3.69805626 5.81786879 4.13389726 7.25161722 4.5625 8.6875 C4.78357422 9.39583984 5.00464844 10.10417969 5.23242188 10.83398438 C6.46530519 14.86785941 7.41295129 18.8115064 8 23 C7.34 22.34 6.68 21.68 6 21 C6 20.01 6 19.02 6 18 C5.34 18 4.68 18 4 18 C0.6312267 11.70185861 -0.13958262 7.11871364 0 0 Z " fill="#EAD6FB" transform="translate(118,201)"/>
<path d="M0 0 C0.66 0 1.32 0 2 0 C3.6875 1.6875 3.6875 1.6875 5 4 C4.6875 6.75 4.6875 6.75 4 9 C3.34 9 2.68 9 2 9 C1.7525 10.11375 1.505 11.2275 1.25 12.375 C0 16 0 16 -2.078125 17.2265625 C-2.71234375 17.48179687 -3.3465625 17.73703125 -4 18 C-3.18836991 16.04130597 -2.37566899 14.08305564 -1.5625 12.125 C-1.11003906 11.03445312 -0.65757812 9.94390625 -0.19140625 8.8203125 C0.49543463 7.19441376 1.21065887 5.57868226 2 4 C1.34 4 0.68 4 0 4 C0 2.68 0 1.36 0 0 Z " fill="#C987D7" transform="translate(272,128)"/>
<path d="M0 0 C0.33 0 0.66 0 1 0 C1.46781587 8.48999166 0.76914577 16.90908026 -2 25 C-2.99 25.33 -3.98 25.66 -5 26 C-5.33 26.66 -5.66 27.32 -6 28 C-5.34 24.7 -4.68 21.4 -4 18 C-3.34 18 -2.68 18 -2 18 C-2.04125 16.88625 -2.0825 15.7725 -2.125 14.625 C-2.14300722 9.60098664 -1.11958236 4.8781803 0 0 Z " fill="#B278D2" transform="translate(231,190)"/>
<path d="M0 0 C1.65 0 3.3 0 5 0 C3.33333333 1.66666667 1.66666667 3.33333333 0 5 C-1.12894168 11.99943839 -1.10776051 18.92372629 -1 26 C-3 24 -3 24 -3.24291992 21.96875 C-3.23881104 21.1540625 -3.23470215 20.339375 -3.23046875 19.5 C-3.22853516 18.613125 -3.22660156 17.72625 -3.22460938 16.8125 C-3.21236328 15.884375 -3.20011719 14.95625 -3.1875 14 C-3.18685547 13.071875 -3.18621094 12.14375 -3.18554688 11.1875 C-3.14037187 4.28074374 -3.14037187 4.28074374 -2 2 C-1.34 2 -0.68 2 0 2 C0 1.34 0 0.68 0 0 Z " fill="#F7DC6C" transform="translate(93,147)"/>
<path d="M0 0 C3.78834395 1.26278132 4.22011278 2.52112952 6 6 C6.6875 8.3125 6.6875 8.3125 7 10 C7.66 10 8.32 10 9 10 C8.67 11.65 8.34 13.3 8 15 C7.34 14.67 6.68 14.34 6 14 C6 13.34 6 12.68 6 12 C5.34 12 4.68 12 4 12 C3.32645501 10.56570999 2.66140299 9.12742943 2 7.6875 C1.62875 6.88699219 1.2575 6.08648437 0.875 5.26171875 C0 3 0 3 0 0 Z " fill="#A680DA" transform="translate(143,72)"/>
<path d="M0 0 C0.8971875 0.309375 0.8971875 0.309375 1.8125 0.625 C1.235 0.975625 0.6575 1.32625 0.0625 1.6875 C-2.97121655 4.29986703 -4.32065929 7.09133723 -6.1875 10.625 C-6.8475 10.625 -7.5075 10.625 -8.1875 10.625 C-10.375 8.3125 -10.375 8.3125 -12.1875 5.625 C-11.8575 4.635 -11.5275 3.645 -11.1875 2.625 C-10.5275 2.955 -9.8675 3.285 -9.1875 3.625 C-9.1875 4.615 -9.1875 5.605 -9.1875 6.625 C-7.8675 6.625 -6.5475 6.625 -5.1875 6.625 C-5.2803125 5.449375 -5.2803125 5.449375 -5.375 4.25 C-5.313125 3.38375 -5.25125 2.5175 -5.1875 1.625 C-2.1875 -0.375 -2.1875 -0.375 0 0 Z " fill="#9B7DCF" transform="translate(93.1875,144.375)"/>
<path d="M0 0 C6.25150477 5.91358559 8.46243254 10.69713572 10 19 C9.34 19 8.68 19 8 19 C7.82984375 18.41992188 7.6596875 17.83984375 7.484375 17.2421875 C5.92620928 12.2195895 4.2852928 8.1331103 1 4 C0.34 4 -0.32 4 -1 4 C-0.67 2.68 -0.34 1.36 0 0 Z " fill="#EED0F8" transform="translate(217,156)"/>
<path d="M0 0 C0 0.99 0 1.98 0 3 C-0.66 3.66 -1.32 4.32 -2 5 C-2 5.99 -2 6.98 -2 8 C-5 10 -5 10 -8 10 C-8.04125 10.598125 -8.0825 11.19625 -8.125 11.8125 C-9 14 -9 14 -12.0625 15.75 C-13.031875 16.1625 -14.00125 16.575 -15 17 C-13.4254269 13.13513876 -10.9952764 10.86504699 -8 8 C-6.55983055 6.56517441 -5.12245801 5.12753751 -3.6875 3.6875 C-2.45833333 2.45833333 -1.22916667 1.22916667 0 0 Z " fill="#AA96E7" transform="translate(86,114)"/>
<path d="M0 0 C0.66 0 1.32 0 2 0 C2 0.66 2 1.32 2 2 C2.99 2.33 3.98 2.66 5 3 C6.68359375 4.92578125 6.68359375 4.92578125 8.4375 7.3125 C10.76963436 10.4689682 13.16741187 13.27947031 16 16 C11.37894228 16 9.21407311 13.10558119 6 10 C0 3.79039301 0 3.79039301 0 0 Z " fill="#C383D4" transform="translate(270,98)"/>
<path d="M0 0 C0.33 0.99 0.66 1.98 1 3 C-4.69477654 6.79651769 -10.16191129 8.3335653 -17 8 C-13.21882205 6.03484023 -9.31256081 4.52934672 -5.33984375 3 C-2.80029353 1.99908693 -2.80029353 1.99908693 0 0 Z " fill="#BC91DE" transform="translate(205,239)"/>
<path d="M0 0 C0.57492188 0.23074219 1.14984375 0.46148437 1.7421875 0.69921875 C0.16708625 2.18714836 -1.41822114 3.66427935 -3.0078125 5.13671875 C-4.33039063 6.37228516 -4.33039063 6.37228516 -5.6796875 7.6328125 C-8.04656282 9.52989893 -9.3087316 10.32024807 -12.2578125 10.69921875 C-10.82540562 7.36924193 -9.07544726 5.29992915 -6.3828125 2.88671875 C-5.36574219 1.94892578 -5.36574219 1.94892578 -4.328125 0.9921875 C-2.2578125 -0.30078125 -2.2578125 -0.30078125 0 0 Z " fill="#DBCEF9" transform="translate(94.2578125,85.30078125)"/>
<path d="M0 0 C1.32 0.33 2.64 0.66 4 1 C4.61538462 8.26153846 4.61538462 8.26153846 1.5 12 C0.675 12.66 -0.15 13.32 -1 14 C-1 11 -1 11 0 10 C0.07205511 8.31391034 0.08386068 6.62499341 0.0625 4.9375 C0.04896484 3.55884766 0.04896484 3.55884766 0.03515625 2.15234375 C0.02355469 1.44207031 0.01195312 0.73179688 0 0 Z " fill="#D38DDA" transform="translate(296,127)"/>
<path d="M0 0 C1.32 0.33 2.64 0.66 4 1 C4 1.66 4 2.32 4 3 C4.99 3.33 5.98 3.66 7 4 C9.52003857 7.44847383 9.15901 10.86573995 9 15 C7.35 15.66 5.7 16.32 4 17 C4.33 16.01 4.66 15.02 5 14 C5.66 13.67 6.32 13.34 7 13 C6.47731534 10.23723823 5.89130413 7.6739124 5 5 C4.34 5 3.68 5 3 5 C3 4.34 3 3.68 3 3 C2.01 2.67 1.02 2.34 0 2 C0 1.34 0 0.68 0 0 Z " fill="#EDC6F2" transform="translate(269,123)"/>
<path d="M0 0 C0.75 1.75 0.75 1.75 1 4 C-1.29901861 7.35273547 -2.7287025 7.9457405 -6.75 8.75 C-8.35875 8.87375 -8.35875 8.87375 -10 9 C-10 9.66 -10 10.32 -10 11 C-12.31 11 -14.62 11 -17 11 C-17 10.67 -17 10.34 -17 10 C-15.02 10 -13.04 10 -11 10 C-11 9.34 -11 8.68 -11 8 C-10.06027344 7.51080078 -10.06027344 7.51080078 -9.1015625 7.01171875 C-8.28429687 6.57472656 -7.46703125 6.13773437 -6.625 5.6875 C-5.81289062 5.25824219 -5.00078125 4.82898438 -4.1640625 4.38671875 C-1.73165957 3.03221276 -1.73165957 3.03221276 0 0 Z " fill="#ECD1F9" transform="translate(197,85)"/>
<path d="M0 0 C0.33 0.99 0.66 1.98 1 3 C-0.98 3.99 -0.98 3.99 -3 5 C-2.67 8.3 -2.34 11.6 -2 15 C-1.34 15 -0.68 15 0 15 C-0.33 15.99 -0.66 16.98 -1 18 C-3.84304987 15.15695013 -5.32780773 12.99733936 -5.5625 9 C-5.40798213 5.45280713 -4.95330237 4.94396284 -2.5 2 C-1.675 1.34 -0.85 0.68 0 0 Z " fill="#E7E0FD" transform="translate(54,123)"/>
<path d="M0 0 C0.33 0 0.66 0 1 0 C1.7833257 7.98992213 1.7833257 7.98992213 -1.375 12.0625 C-4 14 -4 14 -6 14 C-6 14.66 -6 15.32 -6 16 C-6.66 16 -7.32 16 -8 16 C-8 15.01 -8 14.02 -8 13 C-7.01 13 -6.02 13 -5 13 C-3.49439503 10.14589666 -2.36783204 7.31875358 -1.375 4.25 C-0.98441406 3.05117187 -0.98441406 3.05117187 -0.5859375 1.828125 C-0.39257812 1.22484375 -0.19921875 0.6215625 0 0 Z " fill="#B27DD8" transform="translate(214,188)"/>
<path d="M0 0 C2.64 0 5.28 0 8 0 C0.5 5 0.5 5 -2 5 C-2 5.99 -2 6.98 -2 8 C-3.98 8.99 -5.96 9.98 -8 11 C-8 10.01 -8 9.02 -8 8 C-7.01 8 -6.02 8 -5 8 C-5 6.68 -5 5.36 -5 4 C-3.68 4 -2.36 4 -1 4 C-0.67 2.68 -0.34 1.36 0 0 Z " fill="#E7D3FB" transform="translate(149,152)"/>
<path d="M0 0 C0.33 0 0.66 0 1 0 C1.34559158 2.90296927 1.51874316 5.12537491 -0.0078125 7.69921875 C-2.19479231 10.40347821 -3.66669298 11.88889766 -7 13 C-7 12.34 -7 11.68 -7 11 C-6.34 11 -5.68 11 -5 11 C-4.9175 10.29875 -4.835 9.5975 -4.75 8.875 C-3.82525487 5.33014368 -2.17522143 2.92295379 0 0 Z " fill="#C489D9" transform="translate(259,256)"/>
<path d="M0 0 C1.5 2.0625 1.5 2.0625 2 4 C1.34 3.67 0.68 3.34 0 3 C-1.70363822 2.77377919 -3.41328701 2.59111527 -5.125 2.4375 C-6.03507812 2.35371094 -6.94515625 2.26992187 -7.8828125 2.18359375 C-8.58148438 2.12300781 -9.28015625 2.06242188 -10 2 C-10 2.66 -10 3.32 -10 4 C-10.66 4 -11.32 4 -12 4 C-12.33 4.66 -12.66 5.32 -13 6 C-12.6484916 3.45156411 -12.13170979 2.15278336 -10.4375 0.1875 C-6.58897026 -1.68742475 -4.14403063 -1.00258806 0 0 Z " fill="#E7C89C" transform="translate(103,145)"/>
<path d="M0 0 C0.66 0.33 1.32 0.66 2 1 C1.9175 2.19625 1.835 3.3925 1.75 4.625 C1.7170865 9.24934637 3.15386254 11.44232818 6 15 C4.68 15 3.36 15 2 15 C-1.00244501 9.99592499 -1.38493338 6.67776737 -1 1 C-0.67 0.67 -0.34 0.34 0 0 Z " fill="#9A88E5" transform="translate(48,127)"/>
<path d="M0 0 C6.87742809 0.44370504 12.85198614 1.76741335 19 5 C19.33 5.66 19.66 6.32 20 7 C15.57916835 6.2531799 11.41843259 4.88289994 7.1875 3.4375 C6.49462891 3.20353516 5.80175781 2.96957031 5.08789062 2.72851562 C3.39099886 2.15508324 1.69536922 1.57791831 0 1 C0 0.67 0 0.34 0 0 Z " fill="#F1D3FA" transform="translate(221,91)"/>
<path d="M0 0 C2.69345443 0.47531549 5.14649256 1.05388232 7.71875 2 C11.33990497 3.10359009 14.600168 3.41133026 18.375 3.625 C19.62023437 3.69976562 20.86546875 3.77453125 22.1484375 3.8515625 C23.08945313 3.90054688 24.03046875 3.94953125 25 4 C25 4.33 25 4.66 25 5 C22.12442297 5.08138426 19.25117738 5.14067851 16.375 5.1875 C15.16263672 5.22520508 15.16263672 5.22520508 13.92578125 5.26367188 C8.85608617 5.32549742 5.38174382 4.85435362 1 2 C0.67 1.34 0.34 0.68 0 0 Z " fill="#EAD4FB" transform="translate(155,92)"/>
<path d="M0 0 C0.66 0.33 1.32 0.66 2 1 C-1.7924658 5.26652402 -5.67233976 7.89480975 -11 10 C-11.66 10 -12.32 10 -13 10 C-13 8 -13 8 -11 6 C-10.01 6 -9.02 6 -8 6 C-8 5.34 -8 4.68 -8 4 C-6.865625 3.525625 -5.73125 3.05125 -4.5625 2.5625 C-1.24259834 1.36377917 -1.24259834 1.36377917 0 0 Z " fill="#E6CAF5" transform="translate(211,233)"/>
<path d="M0 0 C0.66 0 1.32 0 2 0 C2.66 0.99 3.32 1.98 4 3 C7.56769552 3.73606499 7.56769552 3.73606499 11 4 C11 4.66 11 5.32 11 6 C11.66 6 12.32 6 13 6 C13 6.66 13 7.32 13 8 C10.09703073 8.34559158 7.87462509 8.51874316 5.30078125 6.9921875 C2.59652179 4.80520769 1.11110234 3.33330702 0 0 Z " fill="#DFCEFB" transform="translate(73,165)"/>
<path d="M0 0 C0.33 0.66 0.66 1.32 1 2 C-0.98 2 -2.96 2 -5 2 C-5 2.66 -5 3.32 -5 4 C-10.94 4.33 -16.88 4.66 -23 5 C-23 4.34 -23 3.68 -23 3 C-22.00097656 2.93941406 -21.00195312 2.87882812 -19.97265625 2.81640625 C-18.68230469 2.73261719 -17.39195312 2.64882812 -16.0625 2.5625 C-14.77472656 2.48128906 -13.48695313 2.40007812 -12.16015625 2.31640625 C-9.13976043 2.35080812 -9.13976043 2.35080812 -8 1 C-5.34536879 0.54540142 -2.67810862 0.29756762 0 0 Z " fill="#A876D5" transform="translate(189,111)"/>
<path d="M0 0 C-0.9212429 5.68099789 -1.96254994 11.33935016 -3 17 C-3.33 17 -3.66 17 -4 17 C-4.19672365 15.27185839 -4.38196799 13.54240803 -4.5625 11.8125 C-4.71912109 10.36810547 -4.71912109 10.36810547 -4.87890625 8.89453125 C-4.99893984 6.02534118 -4.81572361 3.75001434 -4 1 C-2 0 -2 0 0 0 Z " fill="#A382DF" transform="translate(121,167)"/>
<path d="M0 0 C5.65394631 -0.34615998 9.03006806 0.56574762 14 3 C13.67 3.99 13.34 4.98 13 6 C11.39253944 5.57476184 9.78910164 5.13429874 8.1875 4.6875 C7.29417969 4.44386719 6.40085938 4.20023438 5.48046875 3.94921875 C2.94752262 2.9799181 1.7283504 2.04990396 0 0 Z " fill="#B689DC" transform="translate(188,136)"/>
<path d="M0 0 C0 0.33 0 0.66 0 1 C-4.62 1 -9.24 1 -14 1 C-14 1.66 -14 2.32 -14 3 C-18.455 3.495 -18.455 3.495 -23 4 C-23.33 3.34 -23.66 2.68 -24 2 C-16.09388645 -0.63537118 -8.23134837 -0.17981101 0 0 Z " fill="#9B74D8" transform="translate(142,71)"/>
<path d="M0 0 C1.06723961 3.46222615 1.10173486 6.64039266 1.0625 10.25 C1.05347656 11.32765625 1.04445312 12.4053125 1.03515625 13.515625 C1.02355469 14.33546875 1.01195312 15.1553125 1 16 C-0.32 16 -1.64 16 -3 16 C-2.40984815 10.49191603 -1.43336231 5.35121931 0 0 Z " fill="#AB93DC" transform="translate(133,176)"/>
<path d="M0 0 C0.66 1.32 1.32 2.64 2 4 C-0.2037884 6.53435666 -1.66578661 7.53691481 -5 8 C-7.33300933 8.03888349 -9.66709801 8.0448635 -12 8 C-12 7.67 -12 7.34 -12 7 C-10.948125 6.773125 -9.89625 6.54625 -8.8125 6.3125 C-4.8402094 5.20639469 -2.70400363 3.11370115 0 0 Z " fill="#CB91DE" transform="translate(273,165)"/>
<path d="M0 0 C0.33 0 0.66 0 1 0 C1.25 5.625 1.25 5.625 -1 9 C-1.70812814 11.32108669 -2.38024152 13.65377147 -3 16 C-3.33 16 -3.66 16 -4 16 C-3.6083965 10.04492601 -2.62875405 5.37180176 0 0 Z " fill="#E6D3FB" transform="translate(122,166)"/>
<path d="M0 0 C1.65 0 3.3 0 5 0 C5.38873828 1.95565258 5.76060833 3.91466504 6.125 5.875 C6.33382812 6.96554687 6.54265625 8.05609375 6.7578125 9.1796875 C6.83773437 10.11039062 6.91765625 11.04109375 7 12 C6.34 12.66 5.68 13.32 5 14 C4.01 13.67 3.02 13.34 2 13 C2.66 12.01 3.32 11.02 4 10 C4.02639829 7.70285813 4.02639829 7.70285813 3.625 5.3125 C3.51414063 4.50425781 3.40328125 3.69601562 3.2890625 2.86328125 C3.19367188 2.24839844 3.09828125 1.63351562 3 1 C2.01 0.67 1.02 0.34 0 0 Z " fill="#FCDCD4" transform="translate(240,262)"/>
<path d="M0 0 C1.14626322 0.97866338 2.29199788 1.95794587 3.4375 2.9375 C4.07558594 3.48277344 4.71367188 4.02804688 5.37109375 4.58984375 C6.26991149 5.36795695 7.15936528 6.15936528 8 7 C10.67058851 7.14115161 13.32432238 7.04247107 16 7 C16 7.66 16 8.32 16 9 C11.73829032 9.2506888 8.09020514 9.41752537 4.0625 7.875 C1.45050505 5.50045913 0.82790505 3.3868843 0 0 Z " fill="#987FDC" transform="translate(72,165)"/>
<path d="M0 0 C1.32 0.33 2.64 0.66 4 1 C2.88200014 2.33920838 1.75538103 3.67122556 0.625 5 C-0.00148438 5.7425 -0.62796875 6.485 -1.2734375 7.25 C-2.12808594 8.11625 -2.12808594 8.11625 -3 9 C-3.66 9 -4.32 9 -5 9 C-4.42647107 5.12867972 -2.51295648 2.91827204 0 0 Z " fill="#BE76CF" transform="translate(279,159)"/>
<path d="M0 0 C3.25 -0.375 3.25 -0.375 7 0 C9.5 2.8125 9.5 2.8125 11 6 C10.67 6.99 10.34 7.98 10 9 C9.67 8.21625 9.34 7.4325 9 6.625 C6.1172783 2.84142777 3.60565207 2.83052742 -1 2 C-0.67 1.34 -0.34 0.68 0 0 Z " fill="#9D75C2" transform="translate(96,142)"/>
<path d="M0 0 C5.36095277 1.58921525 10.70843973 3.18972938 16 5 C12.90521121 6.03159626 11.47368607 5.97482862 8.3125 5.5625 C7.50425781 5.46066406 6.69601563 5.35882813 5.86328125 5.25390625 C5.24839844 5.17011719 4.63351563 5.08632812 4 5 C4 4.34 4 3.68 4 3 C2.68 2.34 1.36 1.68 0 1 C0 0.67 0 0.34 0 0 Z " fill="#C38EDA" transform="translate(231,95)"/>
<path d="M0 0 C3.375 -0.125 3.375 -0.125 7 0 C7.66 0.66 8.32 1.32 9 2 C10.64991582 2.70710678 12.31562256 3.37943989 14 4 C13.67 4.66 13.34 5.32 13 6 C6.25 4.25 6.25 4.25 4 2 C2.68252676 1.30251417 1.35085807 0.63040043 0 0 Z " fill="#B18CD9" transform="translate(152,189)"/>
<path d="M0 0 C1.65 0 3.3 0 5 0 C5.33 0.66 5.66 1.32 6 2 C4.68 2 3.36 2 2 2 C0.79371992 4.33214148 -0.1654738 6.49642139 -1 9 C-3.0625 10.1875 -3.0625 10.1875 -5 11 C-5 10.01 -5 9.02 -5 8 C-4.01 8 -3.02 8 -2 8 C-1.855625 7.236875 -1.71125 6.47375 -1.5625 5.6875 C-1 3 -1 3 0 0 Z " fill="#F2E0F9" transform="translate(213,88)"/>
<path d="M0 0 C-3.72965139 2.03435531 -5.66905042 3 -10 3 C-10 3.66 -10 4.32 -10 5 C-11.98 5 -13.96 5 -16 5 C-15.01 4.67 -14.02 4.34 -13 4 C-13 3.34 -13 2.68 -13 2 C-11.5882217 1.46605821 -10.17029756 0.94834896 -8.75 0.4375 C-7.96109375 0.14746094 -7.1721875 -0.14257812 -6.359375 -0.44140625 C-3.80896548 -1.04522837 -2.44677771 -0.8473932 0 0 Z " fill="#D3BEF6" transform="translate(126,75)"/>
<path d="M0 0 C1.7325 0.1546875 1.7325 0.1546875 3.5 0.3125 C4.16 1.3025 4.82 2.2925 5.5 3.3125 C2.53 3.3125 -0.44 3.3125 -3.5 3.3125 C-3.83 5.2925 -4.16 7.2725 -4.5 9.3125 C-4.83 9.3125 -5.16 9.3125 -5.5 9.3125 C-5.625 5.9375 -5.625 5.9375 -5.5 2.3125 C-3.5 0.3125 -3.5 0.3125 0 0 Z " fill="#B085D9" transform="translate(182.5,213.6875)"/>
<path d="M0 0 C0.6015625 1.828125 0.6015625 1.828125 1 4 C-0.625 6.75 -0.625 6.75 -3 9 C-5.75 9.3125 -5.75 9.3125 -8 9 C-7.67 8.34 -7.34 7.68 -7 7 C-6.34 7 -5.68 7 -5 7 C-3.64287834 5.44144019 -3.64287834 5.44144019 -2.375 3.5 C-1.92898438 2.8503125 -1.48296875 2.200625 -1.0234375 1.53125 C-0.68570312 1.0259375 -0.34796875 0.520625 0 0 Z " fill="#F3D8F9" transform="translate(267,147)"/>
<path d="M0 0 C4.52048157 3.13922331 6.51545911 6.21495828 9 11 C6.5625 10.1875 6.5625 10.1875 4 9 C3.67 8.01 3.34 7.02 3 6 C2.34 5.67 1.68 5.34 1 5 C0.375 2.4375 0.375 2.4375 0 0 Z " fill="#E8DCFD" transform="translate(69,135)"/>
<path d="M0 0 C2.4375 0.375 2.4375 0.375 5 1 C5.33 1.66 5.66 2.32 6 3 C6.99 3.33 7.98 3.66 9 4 C9 5.65 9 7.3 9 9 C7.87105124 8.06725891 6.74699124 7.12859878 5.625 6.1875 C4.99851563 5.66542969 4.37203125 5.14335938 3.7265625 4.60546875 C2 3 2 3 0 0 Z " fill="#F5DEFB" transform="translate(247,100)"/>
<path d="M0 0 C0.66 0.33 1.32 0.66 2 1 C0.41641358 4.16717283 -0.45263699 5.73268318 -3.6875 7.3125 C-4.450625 7.539375 -5.21375 7.76625 -6 8 C-5.65120368 4.74456771 -4.97866739 3.98126893 -2.4375 1.75 C-1.633125 1.1725 -0.82875 0.595 0 0 Z " fill="#BE7BD4" transform="translate(248,272)"/>
<path d="M0 0 C4.79263422 1.59754474 6.68512488 4.59071405 9 9 C9 9.99 9 10.98 9 12 C1.33257403 4.88610478 1.33257403 4.88610478 0 0 Z " fill="#D091DD" transform="translate(286,115)"/>
<path d="M0 0 C0.86625 0.4640625 0.86625 0.4640625 1.75 0.9375 C3.84294184 1.92583364 5.74535275 2.5168613 8 3 C8.33 4.32 8.66 5.64 9 7 C9.66 7 10.32 7 11 7 C10.67 7.99 10.34 8.98 10 10 C8.33037631 8.52417192 6.6643694 7.04425109 5 5.5625 C4.071875 4.73878906 3.14375 3.91507812 2.1875 3.06640625 C1.465625 2.38449219 0.74375 1.70257813 0 1 C0 0.67 0 0.34 0 0 Z " fill="#CE9ADF" transform="translate(259,90)"/>
<path d="M0 0 C-0.33 0.66 -0.66 1.32 -1 2 C-4.63 2 -8.26 2 -12 2 C-12 1.34 -12 0.68 -12 0 C-10.56359829 -0.19573608 -9.12580496 -0.38127816 -7.6875 -0.5625 C-6.88699219 -0.66691406 -6.08648437 -0.77132812 -5.26171875 -0.87890625 C-3 -1 -3 -1 0 0 Z " fill="#F4E0FA" transform="translate(189,226)"/>
<path d="M0 0 C2.9375 0.75 2.9375 0.75 6 2 C6.875 4.125 6.875 4.125 7 6 C7.66 6 8.32 6 9 6 C9.99 7.485 9.99 7.485 11 9 C10.67 9.99 10.34 10.98 10 12 C9.29423828 11.07767578 9.29423828 11.07767578 8.57421875 10.13671875 C7.95160156 9.32847656 7.32898438 8.52023438 6.6875 7.6875 C6.07261719 6.88699219 5.45773438 6.08648437 4.82421875 5.26171875 C3.30083693 3.37298626 1.75565593 1.66922364 0 0 Z " fill="#BC84D8" transform="translate(211,149)"/>
<path d="M0 0 C0.99 0.495 0.99 0.495 2 1 C1.01 1.495 1.01 1.495 0 2 C0 1.34 0 0.68 0 0 Z M-1 5 C-1.9590625 5.6496875 -1.9590625 5.6496875 -2.9375 6.3125 C-5.26746003 7.91239177 -5.26746003 7.91239177 -6 11 C-6.99 11 -7.98 11 -9 11 C-9 9.68 -9 8.36 -9 7 C-4.82258065 3.72580645 -4.82258065 3.72580645 -1 5 Z " fill="#9681DE" transform="translate(78,124)"/>
<path d="M0 0 C0.66 0 1.32 0 2 0 C2 0.99 2 1.98 2 3 C0.02 3.33 -1.96 3.66 -4 4 C-4 4.66 -4 5.32 -4 6 C-5.98 6.33 -7.96 6.66 -10 7 C-8.68 6.34 -7.36 5.68 -6 5 C-6 4.34 -6 3.68 -6 3 C-5.195625 2.690625 -4.39125 2.38125 -3.5625 2.0625 C-1.10919595 1.23664655 -1.10919595 1.23664655 0 0 Z " fill="#C79DE2" transform="translate(204,102)"/>
<path d="M0 0 C2.64 0.33 5.28 0.66 8 1 C7.67 1.99 7.34 2.98 7 4 C7.99 4 8.98 4 10 4 C10 4.66 10 5.32 10 6 C10.99 6.33 11.98 6.66 13 7 C11.68 7 10.36 7 9 7 C9 6.34 9 5.68 9 5 C8.443125 4.87625 7.88625 4.7525 7.3125 4.625 C4.77885636 3.94023145 2.42078968 3.00866237 0 2 C0 1.34 0 0.68 0 0 Z " fill="#D9BFF1" transform="translate(144,104)"/>
<path d="M0 0 C2.0625 0.4375 2.0625 0.4375 4 1 C1.71823587 3.07384637 0.55676517 3.98397191 -2.578125 4.07421875 C-3.90070313 3.88279297 -3.90070313 3.88279297 -5.25 3.6875 C-6.14203125 3.56761719 -7.0340625 3.44773438 -7.953125 3.32421875 C-8.62859375 3.21722656 -9.3040625 3.11023438 -10 3 C-10 2.67 -10 2.34 -10 2 C-9.04287109 1.90912109 -9.04287109 1.90912109 -8.06640625 1.81640625 C-6.82697266 1.69072266 -6.82697266 1.69072266 -5.5625 1.5625 C-4.73878906 1.48128906 -3.91507812 1.40007812 -3.06640625 1.31640625 C-1.01337975 1.21069185 -1.01337975 1.21069185 0 0 Z " fill="#F8E0FC" transform="translate(267,168)"/>
<path d="M0 0 C4.48222888 2.18054378 6.24897776 4.33060736 8 9 C7.67 9.99 7.34 10.98 7 12 C6.401875 10.906875 5.80375 9.81375 5.1875 8.6875 C3.69770009 6.05781761 2.19726601 4.08740271 0 2 C0 1.34 0 0.68 0 0 Z " fill="#E6CBF8" transform="translate(205,162)"/>
<path d="M0 0 C0.66 0.66 1.32 1.32 2 2 C1.9765625 4.1640625 1.9765625 4.1640625 1.625 6.625 C1.51414063 7.44226563 1.40328125 8.25953125 1.2890625 9.1015625 C1.19367188 9.72804688 1.09828125 10.35453125 1 11 C0.34 11 -0.32 11 -1 11 C-1.02688151 9.35425434 -1.04634123 7.70838587 -1.0625 6.0625 C-1.07410156 5.14597656 -1.08570313 4.22945313 -1.09765625 3.28515625 C-1 1 -1 1 0 0 Z " fill="#F79257" transform="translate(241,264)"/>
<path d="M0 0 C1.31611677 0.95336021 2.62778961 1.91285774 3.9375 2.875 C4.66839844 3.40867188 5.39929688 3.94234375 6.15234375 4.4921875 C8 6 8 6 9 8 C5.625 7.375 5.625 7.375 2 6 C0.5625 2.875 0.5625 2.875 0 0 Z " fill="#AD87DE" transform="translate(130,230)"/>
<path d="M0 0 C2 3 2 3 2 5 C2.99 5.33 3.98 5.66 5 6 C6.1875 8.0625 6.1875 8.0625 7 10 C4.83125748 9.49396008 3.00032373 9.00016187 1 8 C0.40644386 5.35139573 0.25790731 2.70802678 0 0 Z " fill="#B28FE4" transform="translate(123,219)"/>
<path d="M0 0 C3 1 3 1 4.75 3.875 C6 7 6 7 5 10 C4.15801693 8.90241493 3.32669329 7.79664683 2.5 6.6875 C2.0359375 6.07261719 1.571875 5.45773438 1.09375 4.82421875 C0 3 0 3 0 0 Z " fill="#9981DF" transform="translate(73,136)"/>
<path d="M0 0 C0.33 0 0.66 0 1 0 C1.1953125 6.0546875 1.1953125 6.0546875 1 8 C0.34 8.66 -0.32 9.32 -1 10 C-1.99 10 -2.98 10 -4 10 C-3.71125 9.46375 -3.4225 8.9275 -3.125 8.375 C-1.83288192 5.64719516 -0.91441408 2.87387282 0 0 Z " fill="#E5C6F4" transform="translate(202,75)"/>
<path d="M0 0 C1.65 0 3.3 0 5 0 C4.34 1.32 3.68 2.64 3 4 C2.34 4 1.68 4 1 4 C0.67 5.32 0.34 6.64 0 8 C-1.43088528 5.13822943 -0.59991697 3.06624227 0 0 Z " fill="#A987DC" transform="translate(124,156)"/>
<path d="M0 0 C0.99 0.33 1.98 0.66 3 1 C3.69658363 2.65438613 4.36096883 4.32254318 5 6 C6.52007842 7.77277259 6.52007842 7.77277259 8 9 C7.67 9.66 7.34 10.32 7 11 C6.67 10.01 6.34 9.02 6 8 C4.67532254 7.3162955 3.34136367 6.65035814 2 6 C0 3 0 3 0 0 Z " fill="#D7CCFB" transform="translate(57,144)"/>
<path d="M0 0 C4.95 1.98 4.95 1.98 10 4 C9.67 4.66 9.34 5.32 9 6 C4.545 5.01 4.545 5.01 0 4 C0 2.68 0 1.36 0 0 Z " fill="#A179D4" transform="translate(143,105)"/>
<path d="M0 0 C0.33 0.66 0.66 1.32 1 2 C0.34 2 -0.32 2 -1 2 C-1.226875 2.5775 -1.45375 3.155 -1.6875 3.75 C-3.33038023 6.5663661 -5.39533227 8.08077114 -8 10 C-7.6875 8.0625 -7.6875 8.0625 -7 6 C-6.01 5.67 -5.02 5.34 -4 5 C-4 4.34 -4 3.68 -4 3 C-3.34 3 -2.68 3 -2 3 C-2 2.34 -2 1.68 -2 1 C-1.34 0.67 -0.68 0.34 0 0 Z " fill="#ECDEFD" transform="translate(97,101)"/>
<path d="M0 0 C0.66 0.33 1.32 0.66 2 1 C1.67 1.99 1.34 2.98 1 4 C0.01 4 -0.98 4 -2 4 C-2 4.66 -2 5.32 -2 6 C-3.96147874 7.38938077 -5.96166576 8.7260411 -8 10 C-7.1875 8.0625 -7.1875 8.0625 -6 6 C-5.01 5.67 -4.02 5.34 -3 5 C-1.8499169 3.03327085 -1.8499169 3.03327085 -1 1 C-0.67 0.67 -0.34 0.34 0 0 Z " fill="#D2C2F6" transform="translate(80,96)"/>
<path d="M0 0 C2.475 0.495 2.475 0.495 5 1 C5.33 1.99 5.66 2.98 6 4 C6.66 4.33 7.32 4.66 8 5 C7.67 5.99 7.34 6.98 7 8 C5.8274869 7.04882866 4.66212985 6.08882991 3.5 5.125 C2.8503125 4.59132813 2.200625 4.05765625 1.53125 3.5078125 C1.0259375 3.01023437 0.520625 2.51265625 0 2 C0 1.34 0 0.68 0 0 Z " fill="#BF7CD1" transform="translate(256,85)"/>
<path d="M0 0 C0.33 0.99 0.66 1.98 1 3 C-0.3125 5.1875 -0.3125 5.1875 -2 7 C-2.66 7 -3.32 7 -4 7 C-4 7.66 -4 8.32 -4 9 C-4.66 8.67 -5.32 8.34 -6 8 C-4.02 5.36 -2.04 2.72 0 0 Z " fill="#C18ED8" transform="translate(224,218)"/>
<path d="M0 0 C6.48292295 -0.3669579 6.48292295 -0.3669579 8.9375 1.375 C10 3 10 3 10 5 C5 3 5 3 0 1 C0 0.67 0 0.34 0 0 Z " fill="#EFD4FC" transform="translate(184,149)"/>
<path d="M0 0 C0 0.99 0 1.98 0 3 C-2.5 4.6875 -2.5 4.6875 -5 6 C-5 5.01 -5 4.02 -5 3 C-2.5 1.3125 -2.5 1.3125 0 0 Z M-7 6 C-6.34 6.33 -5.68 6.66 -5 7 C-6 8 -6 8 -8.5625 8.0625 C-9.7690625 8.0315625 -9.7690625 8.0315625 -11 8 C-9.125 6.9375 -9.125 6.9375 -7 6 Z " fill="#AC71D4" transform="translate(211,99)"/>
<path d="M0 0 C7.71428571 4 7.71428571 4 9 8 C8.443125 7.54625 7.88625 7.0925 7.3125 6.625 C4.94686561 4.96266232 2.70984342 3.97855457 0 3 C0 2.01 0 1.02 0 0 Z " fill="#F1D8F9" transform="translate(208,148)"/>
<path d="M0 0 C1.32 0 2.64 0 4 0 C4 0.66 4 1.32 4 2 C5.32 2 6.64 2 8 2 C8 2.66 8 3.32 8 4 C8.66 4 9.32 4 10 4 C10 4.99 10 5.98 10 7 C9.01 6.67 8.02 6.34 7 6 C6.67 5.34 6.34 4.68 6 4 C5.01 3.67 4.02 3.34 3 3 C3 2.34 3 1.68 3 1 C2.01 0.67 1.02 0.34 0 0 Z " fill="#C290DC" transform="translate(201,142)"/>
<path d="M0 0 C-3.66291938 2.47785723 -6.6109185 3.48964169 -11 4 C-11 3.34 -11 2.68 -11 2 C-9.68 2 -8.36 2 -7 2 C-7 1.34 -7 0.68 -7 0 C-2.25 -1.125 -2.25 -1.125 0 0 Z " fill="#DFCAF7" transform="translate(159,138)"/>
<path d="M0 0 C-2.35968744 2.09749995 -3.54616994 2.96905704 -6.75 3.1875 C-7.86375 3.0946875 -7.86375 3.0946875 -9 3 C-9 2.34 -9 1.68 -9 1 C-5.64919071 -1.10976881 -3.77897651 -1.0497157 0 0 Z " fill="#A48AE0" transform="translate(107,100)"/>
<path d="M0 0 C0.66 0 1.32 0 2 0 C1.67 1.65 1.34 3.3 1 5 C-1.31 5.66 -3.62 6.32 -6 7 C-4.71937515 5.2925002 -3.38232443 3.62626404 -2 2 C-1.34 2 -0.68 2 0 2 C0 1.34 0 0.68 0 0 Z " fill="#B486D5" transform="translate(212,95)"/>
<path d="M0 0 C2.52349243 3.12432397 4.27256146 6.38060496 6 10 C5.34 10 4.68 10 4 10 C4 9.34 4 8.68 4 8 C3.34 8 2.68 8 2 8 C-0.1519437 4.77208445 -0.20086443 3.71599191 0 0 Z " fill="#A47EB2" transform="translate(89,262)"/>
<path d="M0 0 C0.99 0 1.98 0 3 0 C3 0.99 3 1.98 3 3 C1.68 3.33 0.36 3.66 -1 4 C-1 5.32 -1 6.64 -1 8 C-1.66 8 -2.32 8 -3 8 C-1.125 2.25 -1.125 2.25 0 0 Z " fill="#BA9AE2" transform="translate(137,167)"/>
<path d="M0 0 C0.66 0.33 1.32 0.66 2 1 C0.02 1.99 0.02 1.99 -2 3 C-2 3.99 -2 4.98 -2 6 C-3.65 5.67 -5.3 5.34 -7 5 C-4.63707344 2.47411298 -3.33537489 1.11179163 0 0 Z " fill="#B690E6" transform="translate(154,153)"/>
<path d="M0 0 C1.7074998 1.28062485 3.37373596 2.61767557 5 4 C5 4.66 5 5.32 5 6 C5.66 6.33 6.32 6.66 7 7 C4.625 6.6875 4.625 6.6875 2 6 C0 3 0 3 0 0 Z " fill="#E1D7F8" transform="translate(80,149)"/>
<path d="M0 0 C0.66 0.33 1.32 0.66 2 1 C1.67 1.66 1.34 2.32 1 3 C0.34 3 -0.32 3 -1 3 C-1.0825 3.61875 -1.165 4.2375 -1.25 4.875 C-2 7 -2 7 -6 9 C-4.02 6.03 -2.04 3.06 0 0 Z " fill="#D29FDC" transform="translate(292,141)"/>
<path d="M0 0 C3.3 0 6.6 0 10 0 C10.33 1.65 10.66 3.3 11 5 C10.484375 4.505 9.96875 4.01 9.4375 3.5 C6.19319983 1.50350759 3.73782666 1.78435615 0 2 C0 1.34 0 0.68 0 0 Z " fill="#C88DDF" transform="translate(244,144)"/>
<path d="M0 0 C3.87915244 0.57468925 6.14756605 2.37884447 9 5 C9.33 5.99 9.66 6.98 10 8 C6.05205855 6.32971708 3.18203882 3.8204435 0 1 C0 0.67 0 0.34 0 0 Z " fill="#CA87DB" transform="translate(276,107)"/>
<path d="M0 0 C0.66 0 1.32 0 2 0 C1.375 2.875 1.375 2.875 0 6 C-3.125 7.375 -3.125 7.375 -6 8 C-5.04956626 6.66102417 -4.08940853 5.32894573 -3.125 4 C-2.59132813 3.2575 -2.05765625 2.515 -1.5078125 1.75 C-1.01023437 1.1725 -0.51265625 0.595 0 0 Z " fill="#AB91E2" transform="translate(96,103)"/>
<path d="M0 0 C0.66 0 1.32 0 2 0 C1.55090939 1.48199902 1.09043436 2.96055236 0.625 4.4375 C0.36976563 5.26121094 0.11453125 6.08492187 -0.1484375 6.93359375 C-1 9 -1 9 -3 10 C-3 8.68 -3 7.36 -3 6 C-2.34 6 -1.68 6 -1 6 C-0.67 4.02 -0.34 2.04 0 0 Z " fill="#E5C2F2" transform="translate(225,210)"/>
<path d="M0 0 C0.66 0 1.32 0 2 0 C0.54744301 3.82946843 -1.42895561 5.12050295 -5 7 C-5 6.01 -5 5.02 -5 4 C-3.35 3.34 -1.7 2.68 0 2 C0 1.34 0 0.68 0 0 Z " fill="#A175DE" transform="translate(147,158)"/>
<path d="M0 0 C0.33 0 0.66 0 1 0 C1 1.65 1 3.3 1 5 C-0.65 5.33 -2.3 5.66 -4 6 C-1.125 1.125 -1.125 1.125 0 0 Z " fill="#CD8CDA" transform="translate(283,153)"/>
<path d="M0 0 C0.99 0.495 0.99 0.495 2 1 C2 1.66 2 2.32 2 3 C2.61875 3.268125 3.2375 3.53625 3.875 3.8125 C6 5 6 5 8 8 C6.35 7.67 4.7 7.34 3 7 C3 6.01 3 5.02 3 4 C2.34 4 1.68 4 1 4 C0.67 2.68 0.34 1.36 0 0 Z " fill="#F4CFF8" transform="translate(274,105)"/>
<path d="M0 0 C-1.15173355 2.46800047 -2.04783565 4.04783565 -4 6 C-4.99 5.67 -5.98 5.34 -7 5 C-2.25 0 -2.25 0 0 0 Z " fill="#AE77D1" transform="translate(215,233)"/>
<path d="M0 0 C0.66 0 1.32 0 2 0 C2.33 2.31 2.66 4.62 3 7 C2.34 7 1.68 7 1 7 C0.67 4.69 0.34 2.38 0 0 Z " fill="#9E79D7" transform="translate(119,214)"/>
<path d="M0 0 C0.33 0.99 0.66 1.98 1 3 C-0.98 3.99 -0.98 3.99 -3 5 C-3 5.66 -3 6.32 -3 7 C-3.66 7 -4.32 7 -5 7 C-3.70700306 4.11562221 -2.34058637 2.12780579 0 0 Z " fill="#D7CDF9" transform="translate(54,123)"/>
</svg>
