<svg width="512" height="512" viewBox="0 0 512 512" fill="none" xmlns="http://www.w3.org/2000/svg">
  <!-- Background gradient matching uploaded design -->
  <defs>
    <linearGradient id="appBg" x1="0%" y1="0%" x2="100%" y2="100%">
      <stop offset="0%" style="stop-color:#8B5CF6"/>
      <stop offset="50%" style="stop-color:#A855F7"/>
      <stop offset="100%" style="stop-color:#EC4899"/>
    </linearGradient>
    <linearGradient id="shirtFill" x1="0%" y1="0%" x2="100%" y2="100%">
      <stop offset="0%" style="stop-color:#ffffff"/>
      <stop offset="100%" style="stop-color:#f8fafc"/>
    </linearGradient>
  </defs>
  
  <!-- Background with rounded corners -->
  <rect width="512" height="512" rx="115" fill="url(#appBg)"/>
  
  <!-- Main shirt icon - centered and large -->
  <g transform="translate(136, 136)">
    <!-- Shirt body -->
    <path d="M60 80 L60 200 Q60 220 80 220 L160 220 Q180 220 180 200 L180 80 Q180 60 160 60 L140 60 L140 40 Q140 20 120 20 Q100 20 100 40 L100 60 L80 60 Q60 60 60 80 Z" 
          fill="url(#shirtFill)" 
          stroke="none"/>
    
    <!-- Shirt sleeves -->
    <ellipse cx="40" cy="100" rx="18" ry="35" fill="url(#shirtFill)"/>
    <ellipse cx="200" cy="100" rx="18" ry="35" fill="url(#shirtFill)"/>
    
    <!-- Shirt collar/neckline -->
    <path d="M100 40 Q100 20 120 20 Q140 20 140 40 L140 60 L100 60 Z" 
          fill="url(#shirtFill)"/>
    
    <!-- Simple shirt details -->
    <line x1="120" y1="80" x2="120" y2="180" stroke="#e2e8f0" stroke-width="2"/>
  </g>
  
  <!-- Circular accent element (like in uploaded design) -->
  <g transform="translate(320, 180)">
    <!-- Orange/yellow circular badge -->
    <circle cx="40" cy="40" r="35" fill="#F59E0B" opacity="0.9"/>
    <circle cx="40" cy="40" r="25" fill="none" stroke="white" stroke-width="3"/>
    <!-- Small dot inside -->
    <circle cx="40" cy="40" r="8" fill="white"/>
    <!-- Smaller accent dots -->
    <circle cx="35" cy="50" r="3" fill="white" opacity="0.8"/>
    <circle cx="45" cy="35" r="2" fill="white" opacity="0.6"/>
  </g>
  
  <!-- Subtle geometric elements -->
  <g opacity="0.3">
    <rect x="80" y="400" width="40" height="6" rx="3" fill="#FCD34D"/>
    <rect x="80" y="420" width="60" height="6" rx="3" fill="#FCD34D"/>
  </g>
  
  <!-- Corner highlights -->
  <circle cx="450" cy="80" r="6" fill="white" opacity="0.4"/>
  <circle cx="80" cy="450" r="4" fill="white" opacity="0.4"/>
</svg>
